<mxfile host="Electron" agent="Mozilla/5.0 (Windows NT 10.0; Win64; x64) AppleWebKit/537.36 (KHTML, like Gecko) draw.io/24.7.17 Chrome/128.0.6613.36 Electron/32.0.1 Safari/537.36" version="24.7.17">
  <diagram name="Page-1" id="39HrcdXENz7vzOWxydDw">
    <mxGraphModel dx="785" dy="1213" grid="1" gridSize="10" guides="1" tooltips="1" connect="1" arrows="1" fold="1" page="1" pageScale="1" pageWidth="827" pageHeight="1169" math="0" shadow="0">
      <root>
        <mxCell id="0" />
        <mxCell id="1" parent="0" />
        <mxCell id="bqYtcyJBVpRJzQG5NFwz-1" value="" style="shape=image;verticalLabelPosition=bottom;labelBackgroundColor=default;verticalAlign=top;aspect=fixed;imageAspect=0;image=data:image/png,iVBORw0KGgoAAAANSUhEUgAABLAAAASwCAQAAABBKHtEAAAABGdBTUEAALGPC/xhBQAAACBjSFJNAAB6JgAAgIQAAPoAAACA6AAAdTAAAOpgAAA6mAAAF3CculE8AAAAAmJLR0QA/4ePzL8AAAAHdElNRQfoBwYSEzj3xz6RAACAAElEQVR42uzdd7gV1d238ZvemygiSpVeRLGLIhbs2HtBjTUmtkQjiSmYaNSYvIpPjLElir1HASsWBOwNpaugYgWR3jnnvH/YUDhw9t7T5/7s63quJwh7Zv3WmpnvnrIGJEmSJEmSJEmSJEmSJEmSJElKiGqWQFLiVacd7WgCzOdDPqTckkiSJBWrCT9nJIuoWO2ziJH8nCYWR5IkqVAbcy2LfxStVv8s5lo2tkiSJElVVY0zWFBpuPrus4AzvNFBkiSpKhrw4HrD1XefB2lgwSRJktatCa9UOV5VUMEr3o8lSZK0LnV4oaB4VUEFL1DHwkmSJFXm3wXHqwoquN7CSZIkrd1+RcWrCirYz+JJkiStqT7Tiw5Y06lvASVJkn7q0qLjVQUV/MUCSkoKZ5CRsqAGbdiA2izmKz5LbSs68i51S/j3K9iCqaltfSs2pAEr+JqPKXNIS5IUp15cxkssX+08zhye4GxapbAtI0s6f1VBBU+lMlidzRPMWa0Vy3mJy+jl4JYkKQ7783KlUWMFd9M1Va05tOR4VUEFh6SqzV25mxWVtuVl9neQS5IUpXY8ud6wsZKrqZeS9tRjRiAB6+PUzOtej6tZud72PEk7B7skSdHYn3lVDBwT6JiKFl0aSLxKz63uHZlQxfbM8zyWJElROJWyAgLHl/RJQdxYGljAWk6XxLe3D18W0KIyTnXQS5IUrmMLilcVVDCLbglv0+OBxasKKng84a3txqwCW1TGsQ58SZLC04clRUSOmbRJcJsODTReJf1W9zbMLKJFS1JwHlKSpJSqzcQiI8c0WiS0TUHd3p6OW92bM6nINk3xhdaSJIVjcAmh46WEho5LA49Xyb3VvQEvldCmwW4AkiSFcXieXVLoeJraiWtTkLe3J/1W91o8VlKb5tDIjUCSpKD9vOTYcVviXo81MpR4lcRZ3atxW8lt+rkbgSRJQXslgNhxVaJadGho8Sp5t7pfFUCLXnEjkCQpWF0Dih0XJKZFYdzentRb3X8ZUJu6uyFIkhSkvwR0iC7n5IS06NJQ41WSbnUvfO6yyj5/dkOQJCk41fggsNixgn0T0KJOLAs9YC2jUwJauifLA2vRh4m7i06SpBTrG2jwWMxOsbdoZOjxKhm3um/LwkBbtJMbgyRJQflXwMFjNl1jbc+hkcSr+G9171ri1Bprfv7lxiBJUjBqBX6Yjvf1OWHf3p6UW91bhdDOOQmczUySpFQ6KJToMYENYmrPpZHFqzhvdW/C26G050A3CEmSgnBfSNHj5VjO7oQ1e3uyZnWvxwshtedeNwhJkkrXmCWhhY/h1Iy8PSMjjVcVVPBk5G2swYOhtWYpTdwoJEkq1c9CDR/DIn7w/9DI41X0t7pX4+ZQW3OyG4UkSaUaFXL4uCzCtkR5e3t8t7pfFnJrRrlRSJJUmlasCj1+nB9Zay6NJV5Fe6v7WaG3pYzN3DAkSSrFhRGEj3IGRdKWqG9vj+NW96MDey1OOt4oKUlSKr0dSfxYwd4RtGVkbPEqqlvdd4/gBUAVVPCWG4YkScXrHln8WMyOIbfl0FjjVRS3um/Dgsja0tONQ5KkYl0eYfyYHepFtLhub4/uVvfN+SLCtvzVjUOSpOJU56NIA8h0NgmtLZfGHq/CvdV9E6ZH2pKPqO4GIklSMXaNPIC8Q7NQWhLn7e1R3OremDcjb0s/NxBJkopxYwwR5HnqhtCSkYmIV2Hd6l6bp2NoyQ1uIJIkFXPYnhNLBHkk8NfnHJqYeBXGre7VuT+WdnxNHTcSKamqWQLlKrB0oR31aMwsPmUiyxK+vofxQExLvpEzAvy2ekyiXYLqOpNuLA7w+67l7NhGyEMJH8N16cGmtGABS/mQqaxwNyRJWbIx5zD6J3cBreBlBtMmwWv9UIxneYYE2I5LE3X+Kuhb3YfE2I4HEzx62zCYl1nxk9dUj+YcNnaHJElZsBnXr2Pyx5XcTcdErneziKasrOxzTkDtSMrt7eHc6n5GzO3YIJFjtyN3s7LStV7G9b7qR5LSrRpnV2Hqx2UMCfyuo9KdHnMIKeOIQNoxMnHxKrhb3Q+K4D2R6/6clrhxW5MhVfhpsICzvUVFktKqIQ9W+UD1Iu0TtvajE3CeZ0DJrTgkkfGqggoOLrlt/RNwbu75hI3a9rxYwAXOhu6kJCl9mhSwq6+ggvkcnaC1bxPJK4PXX5OtSmpFvYgn3yxsos7SZnXvxdwEtKI8UY8PHMzXBa39awm9xClJqlTtos4AXRfKHFDF+G1CYsgsOpfQiksTG68qqODSElrWgc8S0orBCRmxdbmuiLUfTW13VpKUJtcVebh6q6RAEZx3ExND3qdlkW1I4u3twdzqvhFTEtOKiYkYr515q8j1v86dlSSlx+6UF33AWsjxsa//lokKIuNpWlQrRiY6XhV/q3sjXk9UK3rHPl4PZ14JFzn3doclSelQg0klHrKGlXh/TqmuSlgQebaIOcMPSXy8Ku5W91o8kbA2/C3WsVqPoSWu/9QEPsMrSVqL4wM4aE2iZ2zrX52ZiQsiD1OjwMPu9FQErEJvda/OPYlrw6cF9k2Qepb8Y6aCigScM5YkVcG4QA5bSzk3pvXfM5FR5F8FteHSVMSrwmd1vzqRbdgjppE6iMWBrP9Yd1qSlHwdAjxw3U3jGFrw34RGkYur3IKk395e7K3uv09oG/4TwyhtzN0BtqCDOy5JSrpgX17yITtEvP51S7hhOOw5l06tYhseT028qqCCx6vYqhNKeHQi7PnK6kU8SvvwXqAtON0dlyQl3a0BH7yWcW6kL/U4KsFRZBWHVqEFh6QqXlX1VveB63i7XvyfIyMcodU4N/D3ZN7qjktZ47uglD2vsF3g3/kIP+PriNb/UQYmuLpL2ZsxP/qTZrSiGZt8/3+bs23qngorZxpz+IzPmfv9/53JytX+xg6MivnJ0vWNmoMiWtIG/CeEZb3K9u66ZMCSkm0BjUL41pkcG8mtuBvwecLntl7En1lFW1qzGa1pmdm9SAVf8DGfMJOPqMYloYyq4KykFV9FsJztuCeUt3YupAkV7rwkKblahXYRZiWDqR76+v88dZfX/CTj8/PQx2Z1Bod4mbSVOy9lS3VLoIwJ70U3Nbmcp9kk5PV3RiAV57iQv38jRnB5iBd/O9mFMmBJ+QxYALvzdqgv9mjLjnahirJTqFMd9Odt9k3xlisZsKSE76ZbMJJLQps5e5D3RapI1Tg2pG+uwSWMCv0SXhe7UAYsKc8BC2rwR55l01C++1g7UCXE8zBszOP8MYKX8XiJUAYsKecBC6Afb7N/4N+6DV3tQJUQUbYJ/Dv35G0GZGjLlQxYUlFqhvII+dpsyHCGBjyhgje4qzTHBbw1DeFJWka07h1SN3uatE7e76Gs/YafFunyXudoPgjou2rwSWQHM2XTF2xGWUDf1Ya76Bvx1vu+Xajs8AyWsiXqywzb8CZHBfRdA4xXKlFL9gzomw7irYjjlRcJZcCSDFiracw9DKN+AN90nN2nRIyiOgzlYTbIwdYrGbCkKornSaQTeJUeJX5Hgyq9cFhat0NKfmNiZ17inFhuH/E5QhmwpMSK6zdwD14q8Rb1g2lo96lkDUt8EfPhvMJWOdt6JQOWlOBddCNuZ1gJZw+8QKhgFB/06zGU+2maw61XCoFPESpLGrAw5jE9haN4p4h/14JPfUhdgVjFpswq4t914156xbrmFTRisR2orPAMlrKkY+w/GbryMqcW8e+OMl4pIDWLeq71VN6IOV5BNTrafTJgSUmUhLeZ1eMmHiz4MotTjCo4hV5ubsSd3ES9BKy5FwllwJISKSm750N5ix0K+Ptd2c7OU2C2L+iVS314IzHvwDRgyYAlJVJyHvNuxwtcVIULlhtwBMN4y65ToN7kPk5n4yr8zdN5MUHbjRM1KEO8yV1Z8lJB543C9ygn83Ul/60DAzmAXalltykkZbzNCIbzRiX/vQk3cmTCtuCd7DYZsKTkmRPD7NPrNpNjGPejP6nJDhzAQQVdxJFKMYOnGcFTLP/Rn27LPXRI2Jp+TXO7SwYsKWk2ZHYC12oVl/FnyoGmHMDB7EUju0oxWMBT/I8RzAeqcQ5/o3Yit+I5dpUMWFKy7PSTc0XJ8QIPsBd7JfKApnwp42UeY3f2SOxW/JKdpGxw7h1lR3KfQOpHP7tHiVCDvvRN9FZswFJG+BShssMnkCS3YsmAJQX+21dSunWxBDJgSe6aJfkzSVorb3JXdn4sLErEyz4kFW8pDSm3DMrGQUnKhtbGKyn16rGZRZABS0oSb46VssCLhDJgSe6WJbklSwYsuVuW5JYsGbAkd8uSW7JkwJLcLUtyS1buOU2DsqE2i33xk5QBZdRnhWVQ+nkGS9mwufFKyoQabG4RZMCSksLLCpJbs2TAktwlS1or57RTJnhZRevTiP3oz3a0ZiNgOZ8wmRcZwbsGLEkhSNpbRXtxADvRjc2oA8xmJq/yPI+x0K6SVKzu3MJSKtb6Gc/J1EnMmj5fyVr68eMnbZ/nE7NfqcPJjK9kLZdyC909SKhyPkWoyjTjMk6nxjr/zhdczb9ZkIC1/YxN7DIpEz6nVQLWojFncj4t1/l3yriRi5lrl8mAparbnntpW6W/OY/rGMrsWNe2USJCnqRgNIl5i96Ic/kFTav0dz/iKF6xy7Qmb3LX2hzAc1WMV9CUi5nJMDrGuL7egSVlSZy3ubdhKB9ycRXjFbRlNIfZZTJgqSr252HqFfQv6nACk7iVbjGtcRc7TcqQuH4ydeNW3ucc6he4/7uH/e00GbC0Pr24p6inS2txIhN4iO1y9ntXUhYC1nY8xAROpFYR/7Ym99DLbpMBS+v+LXYHDUsYT4fwCmMZmJPfu5Ky8JNpZ4bzCoeUcERsyD3UteNkwFLlzmeLkr+jL4/yKodGOLoMWFKWRHfRvzqH8ipjOKDkb+rOeXacVudThFpdM6ZX+dbO9ZvM37iTlRGs93wa23lSZiygSQRLqcVx/CbAO0fn0cEpG2TA0tr9in8E/I1fcA3/x5JQ17oln9t1GVXOVKYwjQ+Yx3wWAw1oQlM2pwtd6ew5+MxqyZehfn8dTuRi2gS+B73arpMBS2szgR4hfOtsruW6EH/Z9WO0XZc5MxjOc4xe57jZgF3ZjYG0s1yZsysvhPbdzfgF57BRCN88kZ52naQ1tQvx5RcLGcqmIa33ab5cJFOf+dzELgX8+KtGP25mvpXL1OfUkPYWLRjC3BDXu4MHEn3HE+xa/TdjeBpyDh/wbzYP4budpCE7vmII7TiNMVRU+d9U8AKnshnn8oUFzIwwHlzZnH/zMX8K8D7TNe1i18mApTWFfXK7DmcwjeFsk4JdsaK3hN/TjkuKvJi8kGvpxJ9YaiENWGvRi2FM4YzQX1Dfw66TAUtrahPJiDuA1xjLHgYs/cgIenIZi0v6jkX8mZ6MtJgGrB/py3DGc0JREygncS8qA5ZSp0lkS+rLKF5gv0AesqjhXQ+pt5RzGciMQL5rOgcwqMSgpvh1oEYA31KN/XiBsRwQ2QNdTe06GbC0prJIl7YLI3mLo0vejbYN/aS/wjWRbbg20G+8nR2YbGFTrU6VXzdf+U+vo3mLkRHfFVVm18mApTUtj3yJvbmbKZxeUkTa1o5LtefZiUmBf+sEtuNpi5tqpdyrWYfTmcLd9M7BXlQGLKVAPJdVOnIDHzOkqFPrDbiI/9pxKfY/9mVBKN+8iIHcZ4FTbBhXFPWGhoacy/vcQMdY1nqRHSdpTdfHPPvRUDYpYG1rczqfO19Qqj/3BHKfTeVqcK9VTvVnNhcV9ArlDRnCnFjX+F8eSOQZLK1pYaxLb8w5zOCGKj2FU50jmMwNtLTTUuxZTgz5jpUyTuBJC51iG3IFUzm9SkG8JVfwIX9igxzvRWXAUkLFf3K7DqfzPsPW8/rVPXmL+3x2MOXe4qAI7ldZwRGMt9ip1oYbeJcj1vkc4OYMZQYX0cC9qAxYMmBVphYnMIHhbF9JuHqNp9nCzkr9WDsmovG2kMNDustL0enGfbxcyex5WzKMqZxT0KVEA5YMWIrUwgSNywN4mbEM/NGfbsUong58HnjF4QymRras9znNgmfAdoziSXr96M92ZjhvckLI9/Klcy8qA5YSdVYhWfryKG8yiBpAK27gtUDnf1d8bueuSJd3X8TLU1j24m2GsQlQjYG8yJgIpxBN515UMapmCfS9gTyayPX6gPEMoJEdlBEL6MrnES9zY6Y4x3ZmLGYUnddzp2Z8e9ERdpC+4Rks/SCpJ7c351DjVYb8NvJ4BV8yxMJnRgMOSmi88hKhDFhaK09uK3zTuTGW5f4roHcdSu5FZcCSv72UOFewKpblruQqiy8DlqLjPVj6QSs+tQgK1Sd0jO1tbXWYTiu7QKHalM8sgr7hGSz520vRuTnGl+Eu5xY7QO5FFRXPYGn1uL3KEaEQVdCJD2JcfkemOcIV6givSbll0HeHVOk75SyxCArR2FjjFbzPy3aCQrTEeCUDltbO09sK0/9iX4OH7QS5B5UBS+4elC3Pxr4Gz9kJCpFPYsuAJXcPitzXvBP7OrzFXDtC/kSVAUvuHpQdLybg/pQyXrIj5E9UGbDk7kHZMTkRazHFjpA/UWXAkrsHZcdU10LuQWXAkrsHKVjvJWItptkRCo3XAGTAkrsHRW6OayF/osqAJXcPUhbjuz8i5OiSAUvuHmR8d4zLMS4Dltw9SJUpS8RarLIj5B5UBiz5617Z0SARa9HIjpB7UBmwFLXFlkAZjzYGLIXHM1gyYMnfX4pcE9dCBiwZsGTAkoLVPhFr0cGOkHtQGbDk7y9lR2fXQgYsGbDk7kEKVhfXQv5ElQFL7h6kYG3jWsifqMqPapZAq6nHEoug0LTmk9jX4GO7QaGpz1KLoO94BkurW+o0jApR/9jXYA87QaFZZbySAUuV8yKhwrNf7Guwr52g0HiBUAYsuYtQLA6OeRaqxgy0E+TPUxmw5C5C2VKPQ2Nd/pHUsxPk3lMGLLmLUNacEuvSf2YHKESe/5cBS+4iFJO+7BLbsndjRztA/jyVAUvuIpRFF+dwyXLvKQOWcs8zWArX3vSNZbn9nKJB7j1lwJK/wZRd11Mr8mXW5FoLLwOWDFgyYCm7enFW5Ms8l94WXu49ZcCSuwhl2V/oFOnyujDEosu9pwxYipMnuRW+RjwY4YxUdbmHhhZd7j1lwJK/wZR1vfh/kS3r/9jSgsu9pwxY8jeY8uBMLohkOb/lVIst954yYMnfYMqLv0Uws/rxXGah5d5TBiz5G0xxWcEkRlMW4RKr8W+OCzle/ZdqEbaonCcYx2IHkwFLgpqWQO4icmw+E3iDN3iDKZQBh3JPhLNU1eJ2WnFVSN9+DldH+hOyjOO5B4BWbM3WbM12tHCI+fNUeVXNEuhHujHJImTeKqYxlnG8wSQqfvLfoo1YAEO5kJUBf2dt/sEvI23FD/Fqda3Ymr7szNbUddjlYO85xSLIgJUEG9CSesDXfBzphZl124yZdk1mfc4b3warpev4W9FHrNc5iukBfl8b7on4xc5rj1c/qEmXb4NWN/e6mbUZnyZmXWrQhg2ApXzB13aNASsvmnEIB7A9rb7/kxWMZxwv8AJzYl+7psy1izKmjLd4gRd4mS+r+C+ij1hf8yuGrXE2rbh92sn8g6aJilera8kO9KMfW1LDoZkxTZkf+zo0px/96Etvan//Z5/xCiN42H27ASvrv3AuZhD1K/mv5UzgeZ6PNWjVDPxijeKyivGMYyyjitixRh+xYCxn8W6J37EF/4r8ZdKFxKsfNGQHdqYvu1DHoZoRtVgVa7DqT396Vnrf4RKGcRmf2E3Kohr8jsVUVOFTxniGcgjNY1nPJVVaRz/J/SzlOYawe6VBvqoRa0Xka17GfXQveo17cBsrI1/nVRxdUp3rsweX8DzLHLkp/8Tz9GhzDmEo4ymr4jr+zjOnnsHKnhY8wC4F/pt4zmh9FVOwU+mmM4pRPBHQ00xxnMWCch7mRp4p6L7EGuzJ6Rwcw7QzxZ29Wpt69GVP9qSPe+WUmsOGiTpjVZkxHM4su8uAlR3teYqOJRxyogtau/Ccv3BS50teYBSPBX76P56IBfAZdzGcl1mxnr9Xh+05kGNWu6MxSis5mocC/s6N6M+e7Etrh3XKlDGA5xIcrH7wPnsxww4zYGXDhoyjc4BnKJ7jq5DW9Gz+n3OjpcgynuMpnmZiaEuIL2IBLGEsrzCFabzPvNX+vBmb05mu7EDfEi+ElnZADers1dr0ZAB70d/pHVJkBedxfUjf3Yjt2ZM92SqQ87TT2anKj7zIgJVgNXiu4IuD6/bNGa3nGBPoGa06/CuCV5coGLN5guGBXQxMbsRa3TwWAQ0jfkIwnnj1nXr0ZSCHsalDPiVu54x1ToJSqObswm4lnrFamzHslqDpgQxYKtLvQnsbWpBBqxUPsb2dlQKTGM4IxgUypUHaIlZyRBOvftCDAxjITu6xU+AlDuPzxAarH1zMX+0sA1a6bcpUGoS+lG8uHT5bdNDaiQdpaWcl2lKeYgQjA9h1G7HSFq9++Bm0PwMZ4GXDhPuMQ3mlyH8b7KXAde9RuvKxnaU0uz7Sh9zf5hoOLvgpwNNZ7kPWCf4sYTiDaBzrOI5j0oakfkqdmKFU9RjIMObbEwn+LOPUgs9YHcw1vF3F6RaC+VzvAdozWGnWjE9iuAm3nHd5nuerdOmwBtdE/M42Vd1chvMQT7IsAeviWax4z16tGbP25jAOSMgdaVrTNVxQhbucmrML/elPrxgmGVnCZs7urvQ6JebfUR9wA0es44xWQ4b7azORnzkMY+BqL7tIAs9ixX/2as0fSDszlM/dYhL5eYImlfZcI/bkCl6P9IzVmh8fa/IMVoo9xCEJWIvKzmi1YwQ97KSEWcDD3FXgRJuexcrX2aufqsmeHMvBNHLzSZh3GPiT+5ziPGO1poc51E4yYKXVZ2ySqPVZ/Wb4HfgfG9tFCbKcp7mfB2N65YYRK63x6jt1GcAJHJSw85559xWHMJYob14v7AjlBCAGrJTaIMaXNq9LOe/yKXu6I05Qj7zE/dwZ2gSyRqzsx6vvNOVAjmAfJwxOjJU8S8uEnLFaU3O+tosMWGnUgwkWQevxDrdxD5+laI3zGLHSEq++sxlHcSK93Ly03qPUJItgwEqjHXjJIqhS87iP2xmbwjXPW8RKW7z64eB5AqdE+gpipc2OvGwRDFhp1Ic3LILWopxnuZ0HWJLaFuQpYqU1Xn2jDntxAod4yVBrtTVvWgQDVhq1843lWsM0bmUYn6a+HXmJWOmOV99pzSBOoqObn36iPR9aBANWGtVgiTeS63vLuI+bUnlJML8RKxvx6ru9/S6czuHUcVPUt1ZQ31c+G7DS6lW2tQgC3udmbknFU4JGrGzGq+805UjOpbubpIDX2M4ihKe6JQjVOEuQe+WM4kA6c2Xm4hU8xNGsNF6lyjxupBcDuD/DPSePUAasHHjBEuTa51xJewYwnIqMtjC7ESub8eqH0H8kbRn8k1nG5RFKAfISYbg2YLYhNqdGcy2PsioHLc3ihcIsx6vV1eQgzmZXN9dcqqBFBs+rG7By5G16W4ScWcEj/INXctTirEWsvMSr72zJzzmBem66OTOeLS1CmDy7ErbRliBXZnElHTgyV/EqaxcK8xav4G3OoB2DMzB5iArxvCUwYDmElQ5vcRJtcnqYyk7Eyl+8+uGnweaczNtuyP78VzC8RBi25swyxmZeOY9yde5vGM3ChcK8xqvV7cZ5DPTYkIO9VgvmWAYDVrqNZwuLkGEruJcrfGFqJiLWSo7mIbsR6MjZnE5dC5HpI9OWFiFcnlsJ3/OWILMWcS0dGWS8+la6LxSWMch49a33OZf2XMJ8S5FZXiA0YDmMlVCzuYS2nMtMS5GJiOXFwZ/6giG04Tw+txT+9FcxvEQYPu/Cyp4PuYabWGIh1iqNFwqNV5Wrw1H8nk4WIlO8AysCHvjDN4d3LUKGTONEOjHUeFWp9J3FMl6ty3KG0YOT+cBSZMi7xisDVjZ4kTArpnMGPRiWi/nZ8xOxjFfrt5Jb6cyRTLUUHpVkwHIoK/hw1YUbDVcZi1jGq6oq5366G7Iy4nlLED7vwYqCd2Gl3SQu5V7KLURB0nAvlvGqcDU4ht/TxUKkOix7B1YEPOxHwbuw0mwiR9OLu41XBUv+WSzjVXFVu4MeHO+ZrBTzDiwDVoZ4kTCdPuYMenvuKqMRy3hVSu3upDtHMt1SpNLzlsCA5XBWfL5iMF24kTJLkcmIZbwqVTn3040z+MJS+JNfa+M9WNHYgNmG2RRZxHX8lQUWIhBJvBfLeBWcBvySwTS1EKlRQQu+sgzKjrep8JOKz3JuoIUDNuCItSJRfbyKo+2UgH9CXsES9x4p+bztgI2GZ1Wi4inZNFjFDbTnDGZZikAl60KhZ6+C9zWD6czNXlD3aCQDlkNaaxpFH87kMwuR6YhlvArLJ5xGT+63EIn3vCWIhvdgRcW5sJJtEhfymGUIVRLuxTJehW8P/kFvy5BYzoEVGQ/5UXEurOT6lJ/Ry3gVuvjPYhmvovAMW3Man1uIhHIOLANWBnmRMImWcCXd+K8zXeUgYhmvoqv0zXRiMAstRQI9bwkMWAYsha2cW+joYSAnEct4Fa3FXEk3bvOni0ei/PIerOh4F1ayvM7ZvGwZYhDHvVjGq7j04Z/saBkS9LPSO7Ai4wE/OnOYYBES0xfnsb3xKibRn8UyXsXnTfpyIl9aiITwDiwDVkY9ZwkSYBXXsjlDvXSRm4hlvIpXBcPoyrWsshQJ8LwlMGBl0wuWIAG7l604l/kWIjcRy3iVBPM4l148ZSFi5x1YyqgNKPM1DTF+PmGQgzBBoniBji/FSZaBfOieKMZPORs6CJVV493EY/qs4HLqOwAT5hCWhdrryzjEIidMQ/7OSvdIvoUwD7xEGC3vworHi2zNb1liIRLmYQ5maWjfvpwjedgiJ8wiLmBbXrEQHoEMWAqW17+jN4/z2MV59BPqCQaE9GrtWezBoxY4kd5mR07kawvhEUgKjndhRf0ZzmYOu4Rry5uB9/ubtLWwCdeSYe6hIv2U0dxhp2z/dnMzj+rzAfs44FKhFkMC/OlRzlDqWNRU2I8Z7qki+7zlgIuWlwij9rwliMRKLqcnT1iIlPTWEHZnUiDfNYndOJflFjUVHqMHVzlDlkcfKQiH+Dsqgs87bO1QS+F5rPOZXVK/z+b8yF/Co9JtwRvutSL4HOxQU7Z5F1b4EzJcQW0HWko15CI+L6rfP+ciGlrAlKrJRSFP2eHHO7CUA96FFe48L1s5xFJ/JuswHi9gEtIVPM5hnrlKvZ686h7MO7CkUlzjph7SZylDPMxmRjNO4Pb13AI9g9s5gWYWy/NYftb7udoBFrVqliByh/CQRQjBS5zCZMuQOZvQnS60pzkbUg9YylfMYQZTmcTnlidzOnIL/SxDKEee/1kEA1bWbcBsn94M2FIuZijlFkJKvRqcz1+oayECVU4L5lgGA1b2vU1vixCgdzmB8ZZByozu3E4fyxDoUce7UyPnmZQ4PG8JAlPGlWxjvJIyZRLbcwllFsKjjgFLhfF9UEGZwW4MZoWFkDJmFUPYmfcshEed9PISYRy8CysYt3MWiyyDlFn1uZyzPU6VzDuwYuFhPg5f865FKNGXHMgg45WUaUs4l335zEKU6F3jlQErP563BCV5kB4MtwxSDjzJljxqGUrynCUwYOWH18OLt4zzONzfY1JuzOYgTmSJhfCIky5e246Hd2EVazJH845lkHKnO/fQyzIUwTuwYuJBPh7ehVWc29nGeCXl0iS251rLUIR3jFcGrHx53hIUaC6HMcjLBFJuLeVcjmK+hfBoY8DSunhNvDCvsI3vcJRy7z62YKxl8GhjwNK6hrxvzquqcv7Czky3EJL4mN24nAoLUeX95xiLEA9vco+PbySsmjkczxOWQdJq9uN2NrAMVTCeLS1CPDyDFZ9PLUEVvM42xitJP/EYW/KyZaiCzy2BAStvtmEPi7BeN9KXDy2DpDXMpL9PFVbBHuxgEZQnbfmCCj/r/CzgKAeKpHU6loXuLdfz+Zw2DpQ4eA9WHBoxli0swzpN4XAmWgZJ69GFB+hpGdZpEjs5vUX0vEQYvRrcZbxajzvYxnglqQqmsiN3W4Z16s7d1LAMyr5rPWW9zs8KfuEgkVSQ81jp3nOdn6sdJMq6E93Q1/mZze4OEkkF68eX7kHX+TnVQaIs25Flbubr+LxFOweJpKK05jX3ouu8OrCzg0RZtQmfuJGv43M39R0kkopWl9vck67zecJNHSTK5qb/sht4pZ9VXOQQkVSyc1nlHrXSz4vUcYhEJS/TNLRjV3rQliaUs5QlLGEui1nMIuazmMUsYAFLWMy8ENfhZk5xwFXia47macsgKQB7czfNLEMlbuOkEL+9KQ2oT2Ma04AGNKEhDWhAM+pTn3pUZz4fMZHR+ZhAOvsBqxkn8zN6VPnvL2IJi5jHYhazkAUsZjHzWcRiFjOXJSxmIfNZwtIC1+Ns5xyu1AQO5gPLICkgHXmE7pahEj/n3wX+i3rUpwmNaEB9mtGABjSkCQ1oQGMa0YAGNKUh9WlY5W+cyH/4L3MNWOlVh/O5iKahfHc581nI4nWcC/suqlUAO/MMtd2u1+opjnQKPEmBasTd7G8Z1molAxgNVPs+FlV+3qkBjWgS0oyZ87iSq1luwEqjXtyRiAk9l7CMJk7yVokb+QWrLIOkgNXgas62DGtVxnzqJuKhonc4nncNWGlzAHcXcLpS8Wzk5/N/lkFSSE7nOmpahkRbxDGMMGClyUE84GaVcPM5kqcsg6QQ7cc9NLIMibaKw3nEgJUW2/M8dR21iTaDA5hkGSSFrCfDncA44ZbRn1cMWGnQjLdo64hNtJc4mFmWQVIENuQhdrEMifYRW2XvmcIs3nr9DwY4WhPtLg5lgWWQFIkl3E3nAibrUfSa0ojHstao7J3B6s47PrGXaNdyPuWWQVKkx7o/8SfLkGBlbJG120ayF0WuYGtHamJV8Bv+SIWFkBSx55nHXrl5e0n6VKcej2Yt1WdLI76kniM1oZYziPssg6SYHMqdPgCVWEvZmIXZyozZsr/xKrHmMsB4JSlGD7E7cyxDQtXL2tz7WQtYuzlGE+oj+jLGMkiK1Uv042PLkFD9DVhJ5v1XyTSBnZlsGSTFbhI78LZlSKRtDFhJ5vxXSfQcffnEMkhKhM/pzwuWwSN42LJ1k3t1VvmMSOI8wtEsswySEqQe93GAZUiYCmpmaRKfrJ3BMl4lzZ0cYbySlDBLOZhbLYNHcANWVZWz3BGaKNcxiJWWQVLilPEzrrEMibI8W5NQZ+0Mlnf6JMmV/NI52yUlVAXnM9gyeAQ3YFWNT6olZ9f1a3ddkhL/M/BsfwZ6BDdgVcWLjtBEKONU/p9lkJR4/+REVlkGj+AGrPUZ4QhNgOUcyn8sg6RUuIOjWGEZEmB4tpqTvafuxrOFozTmeHVE1jYTSRm3Lw/5lsKYvUPvbDWoeua66BpHaayWMNB4JSllHudglloGj95Byt4ZrDrMYBNHakwWcyDPWgZJKdSPkTS0DDH5nPZZm2gpe2ewlnsOKzYL2Md4JSmlXmB/FlmGmFyTvXksszjzeSM+opmjNXLz2YeXLYOkFNuGpzx+xHL8aMv8rDWqegY7aiH/crRGbh57Ga8kpdzrDGCOZYjcP7MXr7L67r6N+JD6jtgIfcUA3rYMkjKgD0+zgWWI0BLaMTt7zaqeyc6azS2O2AjNY1/jlaSMeJM9+NoyROjmLMarrJ7Bgta8T21HbSTmM4DXLIOkDOnDKO/FishKOvFRFhtWPaMdNpN7HLWRWMxA45WkjHmT/VloGSJxVzbjVXbPYEFXJmY2PibHEvZjtGWQlEF9ecJ5sUJXQS8mZrNp2Y0gU3jEkRt6vDrAeCUpo8axH4stQ8j+l9V4leUzWLAdrzh2Q7ScQ3jcMkjKsAE86jsKQ7U9r2a1aVm+iPaqs4qHaAWHG68kZdzTHJy9GcYT5JnsxisyfpfS5Y7ekKziCEZYBkmZ9yTHsMoyhOSKLDcu2wFrlHOLh6KC03nUMkjKhYf5GeWWIQSvMSrLzauR8e6by1GO4cD9mustgqTceIev2c8yBO5sphiw0msKh9PCURyoP3GlRZCUK69Sg10tQ8DH53OoMGCl2RIOdhwH6DousgiScuc5mrCjZQjQBVl/xVq1zHdhLd6njSM5IHdwovciSMqlatzCyZYhIB/TkZXZbmLNzHfiSv7BUMdyIF5nJIdZBimhlrIMWMVCVjKP+cy3JIGq4DSacKiFCMTfsx6v8nAGC+rzIRs5miXlLhDMYy5z+YLP+ZTP+IxP+YivLUwJ6vEE/SxDyebQNvuz5NfMQUcu4Vr+4niWlDPVaEaztRza3vv2M42JTqJZoKUM5AV6W4gSXZ2HlxBVy0VXNuEjmjiiJelHVjGF8YznbcYzy3JUUSte8s7ekiykLXMNWFnxNy50TEtSpWbwIi/xIu86b/l6dWfsWs4NqupH5Fw8jZ6XgNWSGb6wU5LWaxGv8jyjeJUyi1GpXXmSOpahKMvpwGcGrCy5gdMd15JURfN5llE8zXuWYq2O5O6Mv2wuvKPxmfloaH4CVgem5uKWfkkK0oc8ynBGZ/+h+oKdxXUWoWBldMtLaK+Rm06dS3d6OrYlqSBN2Z5BnElX4GPvz1rNa87tXoR7uSkvTa2Wo27dgrdz1V5JCtZSRnA7T3g261vVuZsjLUNB+vCWASuLRvo+dEkq0Rwe5HbGZftFvVVUl2c9i1XQUfiA/DQ2XwFrB15yfEtSAKbxH/7r7FlsyMts7nCool0Ya8DKqjHs7AiXpEAs52Fu5tmcn8vqzotOZV3FI3CuXjNUI2fd+yXHOcYlKRA16ckgjqMWk3L80p3ZvM3RTtlQBT/n/Tw1N383fb9BH0e5JAVqEXdxNVNy2/5zucZBsB7j2Spf5zpr5K6LF3C441ySAlWbrTmLLfmcj3LZ/ldowbYOg3U6jwn5anD+zmDVYDKdHOmSFIpxXMoTOWx3TUayl91fqel0ydssavm7alzG3x3pkhSSvjzOqxyUu5/vqziSyXZ/pa7I3yS1eZx4sw7TaeVol6QQvcOfeShnzxe25zWa2/Vr8QXtWZa3RufxuYflXO1ol6RQbcEDvMqeuWrzDI6hzK5fi7/nL16R01fHNOAjf2VIUgTGMThPk0symMvt9J+YS1sW5q/ZNXLZ2StplK/pziQpJm04mV68wdzcBMou9LTbf+TvPJnHZuf15cfN+ZCGjnpJiuhn7fX8gQW5aGs9xrC1Xf69JbRjdh4bnte5Z+fwH0e9JEWkFucwhUG5+FG/lMPyGSgqcVNeq1Ett13emvep7ciXpAi9wi95PQft3J0nqWl3AyvoyMx8Nr1Gbjt9AZuzpWNfkiK0GaeyKS9k/s2FM1jIPnY3MIzb89r0ajnu9q5M9PWckhS5mfySR3MQLU7IfU+X0yO/b6jMc8CYwv/cz0lS5FrzCA+yacZbeVaOX379nYfzXINque76rXgj5xWQpLjM45yMXz7qwms0ynUfb5uLO+4qke9LZG/xjPs4SYpFU4YxMtMvLpvK6bnu4afzHK/yfJP7Nz7lRPdykhSTTgzigwy/JHkCG7Ntbnv3ND7M8+D2AtmL7Og+TpJidDu/yOyrVOowlm1y2auvsn2+h7VP0f3NfZskxeoE3mGHjLZtOYcxJ5e9+te8D2vPYFVnIl3dv0lSrFbyV/5MeSbbtj+P5u50xhR6ZLQ3C4gXeVfug7SSFLta/In/sWEm2zaSq3LXnxPyHq88gwWbMpUG7tskKQFmchivZbBdNXkhZ/f7LqIzn+d7MHsG6zLjlSQlRGvGcFoG27WK45mfq55syJC8D+a8n8HqzZuGTElKlBs4N4NvKzyC+3LVi2Vsxbt5HsZ5nwfrTjZ3XyZJibINe/JE5iZumEQbtspRL1anPXfmeRjn+wzWXjzpnkySEuhzDszcPOANeI1uuerFPXjWgJXPtr+U92nQJCmxFnM8/8tYm3ryKvVy1IevsgMVeR3Aeb5EeDjnuweTpISqzVFU4/lMtWkWC9k3R324KW8yNa8DOL9nsGowwQlGJSnhbuIXrMzUUfcRBuao/ybQO68zYuX3CboTjVeSlHin8TD1M9SeCn7GFznqv54cm9ehm9czWHWZShv3XJKUAi9yAHMz1J4DeSRHvfchXViRx2Gb1zNYPzdeSVJK7MRYNstQex7llhz1XjtOzeewzecZrIZ8QAv3WZKUGh+xd4Zul27AW3TKTd99TicW52/I5vMM1q+NV5KUKm0ZTY/MtGYxJ1GWm77bhLPzOGRr5K697RnAP6jp3kqSUqUhR/AkX2akNTOpx8656bu+TGMZC/I1J1YeLhFuTBc605lOdGFzaruXkqSUmsvevJaRttTiRbbJVe+t4AOm8h7TmMbUzETlnAWsxnSiM53pQic609h9kiRlxDz25tWMtKUnr1E3tz25gGm8x1SmMY33WGDASu4vgdZ0oAM96E4H2uf8HYuSlOWItTtvZaQtF3CVHQrAXKYziYlMZzqTWWLAinfNW9P5+0+7XL/0R5Ly5Ct2ZVImWlKdF+hrh/5EGR8y7fvPzLTeuZWugNWcznShM53oTKdcvTBTkvSDT+nH9Ey0pCtv5fgyYVUs5T2m8R7TmMo05hiwglKbzb697NeBHmziSJMkAR+zCx9noiUXc6ndWWVzmc70by8nTmWRAasQNWlDh+/vp2qX47clSpIqN5l+fJWBdtTkZba2O4uMW9/dtzWdiSwzYK2p1bfTKHSmCx2o5ZiRJK3Xa+yWiRnCt+A1pxAq2UqmM/Xbi4nT+CzfAasDA9iBHnSlkSNDklSwERyciRnRL+GPdmagFjKFibzM0/HdqxdPwKrBMZzpkxOSpBLdwJkZaEVtXqeXnRmKcfybu+OI4XEErD35P7ra55KkAFzI3zPQiq14xRtkQjOFsxkV9UKjnj2qNtdyLRvZ25KkgH60T2By6lvxBU3Yyc4MyYacQAtGRXseK9ozWE14lH72tCQpQIvoyzupb0UDJtLWzgzRCxzI/OgWF+UkCI143HglSQpYQx6lRepbsZif25Wh6sfjUT5UF13Aqsat7Gj/SpIC15b7MnAH0+M8aFeGakduje7KXXT3YJ3Nr+xbSVIo2rEhI1PfijGc4otzQtWNObyarYC1GQ9Rx56VJIVkWz7i7ZS3YRFL2NeuDNXO3M6CKBYU1SXC3zuZqCQpVNfTO/VtuI6X7chQNeLiaBYUzbXIFnzkSU9JUsimsG2yXwBcBVvwujNihWoZbZkV/mKiOYN1jPFKkhS6rtyc+ja8w//ZkaGqy9FRLCaagHWo/SlJisBRnJH6NvyJT+3IUB0WxUKiuERYh3mewZIkRWIZ2zIh5W04jjvsyFDHSFOWh72QKM5gdTFeSZIiUpdbU38P052MtiNDHSNdwl9IFAHLqf8lSdHZmiGpb8MvWWVHpjuZRBGwmtqTkqQIDaZ/ylswgRvsxhA1yUbAqm5PSpIiVJ3/pn72xT/wlR0ZmhpRDMLwzbUnJUmRasflKW/BXH5vN4bm62wELB83lSRF7efsnPIW3BTVW/Ny6LPwFxHFNA11WeCstJKkiE2jN8tS3YIdGRfRG1fyZSVNWBr2QqI4g7WMN+1NSVLEOvOHlLfgJe60G0PwZvjxKqob0P9nb0qSIndh6l//PJgldmPgHo5iIdEErLucz0OSFLlaXJfyS2yfco3dGLBV3J2dgPUxD9ijkqTI9eWElLfgcr6wGwP1AB9HsZiokv3mTKSOvSpJitiXdGF+qltwBv+2GwOzgl5Mi2JBNSJq0Fxqpn5eXUlS+jSkDk+mugVvcwgb25EBuZQHo1lQdNema/ICO9qzkqSIrWJLJqa6BfvwuN0YiJfoF9Vd4VHe/NeeN30voSQpco+zX8pb8BQD7MaSzaMPM6JaWJTvCZzBqfauJCly+7JHylvgfJJBODW6eBX1i5gf5F/2ryQpcn+P+HgXrHqpfxYyCa6L6u6rOAIW/Iq37GNJUsS25MgUr/0vaGUXluhdLox2gdFPwNaRN2hsT0uSIjWDbixP5Zo3YDot7MCSLGYbpkS7yOhPmb7PL+xpSVLE2nNyStf8XONVyc6MOl4R0ysE/pPaYS5JSquP6cSK1K11Y2awgZ1XYuo4JfqFxnPT39lMsr8lSZFqw4kpXOvzjVclmsQ5cSw2rpdg9uBV6tvrkqQIpe8cVlOm08yOK8EydmB8HAuO67HViZxvr0uSItWG41O2xr82XpXonHjiVXxnsADu4Dh7XpIUoffpSllq1rY5033uviT3xzc9R5wTr53JVPtekhShjhyUorW90HhVkg84Lb6FV4u16VszjjqOAElSZMayS0rWdEOm08gOK9pKduGV+BYf76sD3uAiR4AkKUI7s31K1vS3xquSXBBnvIIaMTf/VXrT1VEgSYpMw2jfSVekltxOLTuraCM5L94VqBZ7CZrxJu0cCZKkiKxicz5O/Fpey9l2VdFmshVz4l2F+N8uPpejWOlYkCRFpCanJn4dW6VgHZMcoY+JO14lIWDBq/zJ0SBJisypib/49nvq2U1F+wPj4l+JaokoRXUeY29HhCQpIgfzSILXrg3TfMa+aM8ygPIkRJskKOcEPnNMSJIiclqi1+4PxquifclxSYhXSTmDBbArz8T+TKMkKR/K6JDYG93bMZXadlFRytmbUclYleREmo+owa6ODUlSBKozj9EJXbdr2NoOKtKf+U9SVqVaoob70+zu6JAkRWAK3RK5Xp2YRE27pygvsHty3jRZPUGFKec4vnR8SJIi0JU+iVyvIcarIs3m2CS9yLt6oorzBSdT4RiRJEXgmASuU3eOtmOKUsGpfJqkFaqesAI9zt8dJZKkCByduGMgDEngOqXDVTyarBWqlrgS1WQ0OzlSJEmh65+wG917Mt6AVZTX2JkVyVql5HXkKo7ma8eKJCl0hyRsff5ivCrKPI5KWrwikV05kxO9E0uSFLqDE7U2fTjILinKKcxI3kolMyuP4F+OF0lSyNrSK0Fr8+cE3raTBv/koSSuVlJPRv6aNx0zkqSQHZiYNdmG/eyOIrzLb5K5YkkNWMs5igWOG0lSqAYmZk0u8/xVERZxJEsNWIV5P+Gv4pQkpd+2bJyI9diJveyMIvycKUldtSQ/r3Bfct4oJEnKpOrsloj1+ItdUYRbuCPJQyvJfsE7jh9JUoiSELB29k28RZjEOcnO7km2jONY4hiSJIVmjwSsw6V2Q8GWcFSyE0Lyb6k7jRsTvoZlvMsbfMB0PmIpC1lOXZrSjE3pRne2oK3bgSQlWDs+inX5A3gqhqV+yDtMZjKfMpd5LKMOjahPWzrQgW3pmfgpT0/j5mSvYBqeWbid4xO6Zp9zP08wbj3PO27OAAawL/Xci0lSAp3MrbEu/yV2iHBpS3mcp3mK6ev8W03oy74cTsuE9tl9HJX0YZWGgNWQ1+mSsHVawb38hxcor/K/aMrRnMT27skkKWH+y89iXPp+jIxsWS9zK/cwv8p/vwb9+BlHUSthPfYBfZI/lVM6Zt3Ygleom5i1Wcj1XMunRf3bHRjC3u7NJClBJtIzxqW/wnaRLOdxLuGVov7lZpzDmTRKTH8tZ6c0TEaejtdKvsNFCVmTcm6mExcVGa/gZfahLy+6P5OkxOhG49iWfVAk8WosO7JfkfEKPuE3dOY/BVyzCdeF6XjXS3rmjX0oAW89f5NTeDuQWHsGl9PEvZokJcIePBvTMfhNtgx5GfMYzI1UBPBNfbgl9LVdvxEcGEhrQlc9NcP/lJif8ijnSnYMJF5BOdfTnefcp0lSIsR1f+xhoQeWZ+jODQEFkjfZgatiPo/1EYPSEa/SFLDmciQrYlv61wxgcKDL/4y9+HtahokkZdp2sSy1On8I9fsr+Bt783mA37ic37APc2Prp1UcF+PSMxuw4FX+GNOSP2CnEE4fr+JCjmOlezZJilnvWJZ6FFuE+O0rOIaLKAv8e5+mLzNi6qeLGZeeQZWud3dX4/EYnsF7k735KrRvP4D7E/SEpCTlUTmNWRzxMmvwLt1C+/alHMbjoX17C56M4W6sZ9grMTfaV0H1VG0CFTwZ+TInhhqvYAQHsNS9myTFeizsFvkyjwtxmUvYL8R4BbPYi8mRV2x4muJV2gIW7BXx8j5gQKjx6ptMfmK6Bo0kZU73iJdXg9+F9t3lHM/zIa//bPZcz1zwwdszbak9TZpG/L7xRRwU6O2Blbk/xA1NkrR+PSJe3kkhvqHkNzwcQQs+Y/+IZ1MfEON8ZZkPWAOpHeHSKvgZEyNa1pXc5/5NkmIT7SXCWiH+rL6bf0TUiimcEWnV6rC/ASssB0e6tP/j/giXdiafuIeTpJh0iHRpp4S2vI85K8J23MO/MpwCSpSmpwjrMDvCdyF9RI+InynZnVEh9ccCbgzhUd1So/2F7tFj9QyvW4R1jM8mQDOgMTVpQQs2tigZtyjC40ttptIulG8uZ3dGR1q3RkykdWRLW8BGMc6IWaCaKRr+/SN91eTZkT+y+yx3cnwo39yYD7kuYb1Zy4AVs+EMtQgFjdiN2ZSN2ZS29KQHbVM2yY3WpyHNmRPRsk4PKV7BbRHHK1jImYyMbGmN2TmmlxoVIU27iGs5O7JlPRLLichNmUqDUL75czZP2GQQtdLzKySjzjNglfi7vRu96MH2bJeqH6qq3NYRvUK4Lu+zaSjfvIgufBZD5R5lYGTLuppfpWVApekerAMiW1IFQ2Jp4af8PaRv3iTiWxGlrFvIq9zCr+hLEwZwCaNYblFSrk1Ey/l5SPEKroolXsGQCF/7dqADNXg9qYjs82BsrWzGwpDaNIuGierPWhH2p5+1fc51pxKwBhzEnSxwbKX2c05E4+SLkNZ/AU1jG/3/i7CfuqRll5CeM1gHRLisy2Nr5VxuDembN+LnHgGlEC3mEY6jBYdyD4ssRwptGMlSfhHaAxO3MC+22kV51DwgLQPKgLWmd2J9uuqa0E61/ibShwSkfFrGwxzDxpwR2Sx6CkrzCJbRKLTHe8pjvavyFd6NbFmpmQsrLQFrA3aIbFn/ibWlH/BSaL/OzkZSFJZwIz3ZhfsTN0GK1rWPDN85oS1lDB/GWr1bI1vSLjQzYAWbWGtEtKQy7oq5rfeG9s0XxniFXsqfsRxJV+7wXaOp+SEftiYhPgEX99tAbo/sx0RN9jZgBRuwovIas2Nu6wOhXSRs6o3NUsTe5wS2YISFSIHwz2CdH1qIK4/x4axvzOa1DCaCHASsbhwU2bKeir21nzElhZu3pMpMZCB7846FSLimoX9/eM8pTuDL2Os3KrIlHUZXA1bpNuB0xjKRupEt8ekEtHpMaN/chPPdi0oxeIqtGez0uolWJ+TvvyDEe4fGJKB+0R096zGZiVxESwNWcRpwLCP5khvoG+F88+W8kYC2jw3xu8+jhftRKQaruJIdmWAhEivcH/LNQ51na1wC6vdGpHcbducKZjKSY0N6/0lGA1YN9mYYX3An+0X+CooZiXihTJi74Ibpec2AlDlvsg3/sAwJFe4ZrHAnyknCBejFfBzxEmuyH3fyBcPYO7IH4VIcsHpwBZ/wBCfENO/4pERU4f1Qv/2XoU1zJ2l9lnMBxyTszaAKP2BtxFkhfnsFMxJRwXiOoA05gSeYxQ3snKz3KycnYHXgD0xmQsxXVT9IRC0WMivEb2/Ab9yTSjG6h935wjIkTo0Qr5n8NtSTBl+yJAcnB9ZtA05nDJP4Ax0MWD9ozlmM5X3+nIDnAuYmpF/CfWHnWaG9alRSVbzM9ky1DIkTVsDahDNSfMRI0xG0K3/mfcZyViTz8ic6YNVlIPfxGddFeiN7GgLW0pDrfpF7UilWH7NHQs6Y6wcrQ/re31E/1PVenJD6zU/EWlSjL9fxJU8zKN4b4KvHttw9+C9f8ihHUDtBm9eChKxH2Kd7T6e1+1IpVp+yW0LunNE3ykOai7wVp6T6J3naAtY3arAnt/EZ/2WPuJJOHIvtwRA+YBQn0ThxG1jNhKxH2LPl1OF37k2lmM1kD+/FSpCwzl/9gXopP2JUVa3E9WljTmIUMxnKzlkPWG0YzAQm8CfaJXQDq5+YQRG2n9HW/akUsxkcxSrLkOmA1Zafhb7mjRJSwfoJ7dlWnMMYJjCYNlkMWM04jdHM4HJ6JHoDS8rwaBL6Emr7LKGUAC94R2TGA9ZvIrgNpmlCKlg30f3bg8uZwWhOC3FG/YgDVh0GMoxPuJF+KXjzYVJmiIpic/kZrdyjSrG7mgcsQiKEcSdTqwjOXxFVYEjNEXRdmacfN/I5wxkU/gmV6qF+967cyBc8ygmJPXH4U+0T8itgk0iWcpp7VCl2FZzJV5YhAb4O4TtPj+SsTqvQ36NYNR1T0tN1OIDb+JQb2TXMFBTWV/fkcmbwPKcl5tRl1WyeiLXoGtGk/6cm8eUCUu7M8aGTjAas6pwUyZrXpJNH0II15TSeZwaX0zMtAWtTLuBt3o36ZrLA8ncSJo3oFtFyNmM396lSAtzCSxYhdvMC/8bdI3uYqHsC6lc3OXOoF6ANg3mXt7kg+Am4gwxYjRnEcD7kKnqndgOrx9YJWIvo1uFg96lSApTza4sQu+DPYB2SwaNG5bZL1KyWhenNVXzMWM4Ncgb4YAJWbQ7kXr7gNg5IzExSxdo5AeuwZ2RLOtB9qpQILzHGImQuYA3M4FEj2UfP0vJQX65hJvdyYDBRsfSAtTVDmckjHBn6VGrRiP+iWQu2iGxZrVNzU6KUdVdZgpjNCvj7OkX4xowtaRF7/fpnYhTU40ge4QuGsWepr/ArJWB1ZQjv8TrnJKBjg7NH7A+87hXpexl3cq8qJcIIplmEWH2c4r1rdfaKuXobZuqe3macwNN8xFC2jDpgNeQsXmYyf8rg+Y/aEV41X7tBkS5tW/eqUiJUcK9FyFTA2ibStT8+5uodlvobhNbUmnN4i5c5i4bRBKza/JYPuY7tM7uRHRvr0tuyR6TL6+xeVUqIhy1BpgJWl0jXfkCEFyTX5pjMjovtuY4P+W3h92UVGrD68BZ/DfIu+wTaPcJ7oNZ0UsTz3XdCUjK8xQyLEJtVfBbwN0Z7hac6J8ZYvS3ZNdOjozl/5S36hBmwjmVsImbbCFc1fhXbshtwVsRL3BRJSTHKEsTmU8pSvnc9t7gLWYG4IAcjpDtjC7vCVUjAOpXbM/Kk4PocE9skqb+M/IGB2jRwzyolxNuWIDbvB/x9DSOfFWpDzoypdu04MhdjpB63c2oYAWtv/p2ClzUHFTquiGW5jWL5FdDEPauUEG9ZgthMCvj7GsfQhgtjOod1JbVyMkqqcwMHBB2w2nFvrt5bd3QsU6b9mQ1jWGo1JCXDO5YgMwErjj1rC/4Uw1J34ogcjZPq3EG7YAPWDTk7z1GNoZGf3t2Ws2Npa7l7VikhFrPEIsRkYsDfVxFLK84r9EbsktXmXzn7md6EG4IMWPvHPoVZ9PowJOJBemNM5wiXumeVEmOuJYjJ5IC/L56oXJObIr5cd2mK3z5crL3YL7iA9Ydcbm4XRTrx/zWlzBdbguXMd88qJcY8SxCLL/gq8J5cHtPJgX9EuLRdYnzqPk5/DCpg9crwpKLrrs3dkT1NeBw/j6mVs2M6kS1pbcosQSzeDGXvGo+zOSmiJbXj/lzdnf2D7ekVTMA6OrebXEtGRPIkyE7cFFsb33PPKiVIM0sQi5dD+M73Y2vNdewYwVKaMoKNcztiqpCMqhKwds/xRteLB0Kf+2trHotxfrFJSEqOppYgMwErvr1rfR5jq9CX8RA9cjxiqvBq6/UHrBqhd1OyDWBkqDOL9ObJWJ/Q9LFwKTlqxTgXd56V82oI3zo+1qD+VFUuYhWtEY9XJWJkWJ/1Xxxdf8BqTZ2cb3q78RQbhPTde/NCzG92HOO+VUqMbs5LF4tJoTzsMzbWNm3IGPYM6bub8zT9cj5m6qz/5drVq9BJ2pHXQnnG74yI7vGq3Gym2L1SYmxpCWLxSijfOjm229y/0YTHCnmxS5X14fWcPvr205hZcsCqYxWBDrwY8HMZzbibf1Mz5naN8BlCKUG2sgSxeD6Ub61gZMztqsVN3BHwTSinMK6qM5lnXN3SA9ZCqwhAPf7LiMCmbRjA+EQ8nfmgHSslSF9LEIMKRmV4D3sc4wN7VK0dj3Hz+oNFTiwoPWDNtorf25+J/LrkwbU5D/HU+q/eRuCr0HYrkgrXmm0sQgwm8EVI3/x04NOXFqMtz/AAHUo+yXABE9jX4bLaEbTkgPU5c6zj9xryd97n7KIvnLZnKBM5JCGt+U9MMw1LWptDvcU9Fk+F9s3L+W9C2ngYk7im6Et7dTmH97mKBg6W733N56UHLHjdSv7IplzLDC6nc0H/qjr9uY/3OCcxd7WVVfWFlZIiOggqDmGeyf93Yubmr8O5vMe99KviK/K+05krmMFQWjlQfuS1qhz212+klVzDJgxmCmO4gN7r/c1Zj/4MZSbPcUSiXipwN9PtSCkxtmIXixCDZbwQ4rdP5+4EtbUmRzKaj7mGXdd7s0s1tuQCxjCVi2jpMFnDiPX/laqckG7FhxG/nTtdZjGOSUxgKnOYz3y+mSywCR3ZnM7syNbUTuBal9GDqTEuvxYrHDqxOo+hFiFR7uIYixCD4RwY6vd3YlLsz4uvzQpe5yWm8QEfMJ9FrASa0IQN6UJPutGXFg6OSq2kHZ+tP8+u32c8mOP3Ea5fCw5JzF1VVffvWOOVpB9ryxEWIRYPhfz973EjZyWw3bXZiZ3s/iI9uP54RRWvxQ5hpfXMlFn8wSJICXJJIs9yZN9KHgl9Gb9d/+3QSpVV/KUqf61qAWsq11nRTDmHuRZBSoxdGGQRYvFMBPvCBZxvoTPln1V7kXdVnyb4HROtaWbcxr0WQUqMmvzTCRpiEs1UoPcyzFJnxkR+V7W/WNWAtZSDmWVdM2EyZ1sEKUF+xxYWIRarIrhA+I1fMtlyZ8IsDmZpsAEL3mdfZ3XPgDkc6OuPpATZgz9ahJg8FtlRbSH7ewTNgNnsy/tV/cuFTDj2JrvyifVNtcUcXPXBISl0bbgnUfPj5cutES5rBoey2JKn2ifsyptV/+uFzeg6me151xqn1lIOZKxlkBKjHvezoWWIyayqTBYZoLHsY8RKsSn0LexCb/UCF/AZuzLOOqfSfPbnWcsgJUZt7mc7yxCbOyKfgGgsA5lv4VPpNfrxcWH/pHrBC5nL3jxmrVNnJjvznGWQEhSvHmB/yxCj22JY5nPszExLnzqPsVvh99BVL2JBizmQW6x3qjzLdkywDFKC4tW9DLQMMXqVd2JZ7gT68LjlT5U7OLiYi7vVi1pYGadxiTVPiWUMZgBfWAgpMTbkaQ62DLGK712cX3EAg1lmF6TEtZxY3MXk6kUusIIhnEe5lU+85+nNlfaUlCCdGUc/yxCrT7k/xqWXcyW9ed5uSLwKBnNusUfQ6iUseGixqU4RmcTB7MY0CyElyAG8RmfLELN/xn70msZuHFy1V64oJqs4jSuL/+fVS1r4HezrpJUJNZ2T2CKyWYolVUVjbuBRGluImC3hpkSsxyNswUlMt0MSaTEHlXa/efUSV+AZ9nB22sT5mPPozm2UWQopQXbnHU73rYMJcBtzErImZdxGV07kAzslYb5mr1JnTKhe8kq8xo4OjQT5hPPowlCWWwopQTbiekbR1kIkItRcnaj1WckwunEiM+yaxPiIvrxY6pdUD2BFPmAXxtsfCTCbwXRmqE+nSIlSn4t4jzM9d5UQd/Je4tZpJcPoyhl8ZvckwCR2YUrpX1M9kJX5nP6MsU9i9RWDaceVVX3Lt6RI1OAUpnEFTSxFQpRxWULXbAU30oEz+NxOitUr7BrMZLDVA1qheQzgAfslJnO4hM25kiWWQkqQpvya97iZTS1FgtyV6Cerl3MjnTiPL+2omAxnN74K5quqBzgsjuZG+yZyC7mSzRnCAkshJUgnhjKTv9PeUiRKcs9f/WAxQ+nIYObaXZEbxqHBXQeqHujAPdP53SO1iCtpy2BfHiolyEacyXNM5RwaWozEuZOpqdq7z7PLInQtJ7EquK8L/qbLXzI00Nimyn7j3MJlzErt+tdihZ0Yq/NifFVIVjXnUI5kN2pYioRaTveUzTq1AedwnnfwRaCC3/D3YL+yZuAr+U8+407q2lshWsK/+Jvzj0kJ0ZC+7MqubBfCHlVBujZ1k3p+zRCu4zecRX27L0QrOIm7g/7ScB4b3o3/OVdxaMPgVi7JwKO8nsGKm2ewSlWd9vRiB3ZlG4NVKsymU2pvqNiIX3MO9ezEUCzmcJ4I/mvD2S08x+48Rgt7LfBwdROX86mFkGLSmE1pQy960JPunlNImSEpvl91NoP5P37LadS2IwM2i/14I4wvDm/iuw48SUd7LjAruYdLMjRnvmew4vYvHrYIlapNA2rRkBo0pgYt2IRWtKSVkSrFJtE7yBuYY9KaCziDOnZnYD5k77Am7ghzZuGWPMZW9l4AVnEHf87YaxQMWJKitB+PZ6Ql7fkjx3tZOhAT2Ce8q0JhPu/3Bf142v4rUTn304OTfUuVJBXtwczEK5jByXTixgycj4vbaHYO86absN+NVYdhHGkvFqmCkfw+o+959AyWpKgsoFsG3/LXld9xrJOCFO0Rjgn35XJhz1i1nGP5t/1YVLh6iN4M9DXaklSi32byJcpTGMRWPESFHVyE/3J42O/ujebt7hdxhb1ZkFEMDuephsTwDJakaLxMX8oz3L6e/JHDIzqaZ8WVDA5/IVF1ycnc6C15VfQ4f+K1zLfSgCUpCivZhncy38ptuYR97ewqKeNsro9iQVG91Oa/HBH2ybhMGMdu7JeDeCVJ0bgqB/EKXmM/dmSE3b1eyzk2mnhFpCcV+/M/36i0Di/wB17ITWs9gyUpfG+yY672Nf34C/3s9krN52Cej2ph0V617ckTbGoPr8WL/JFnctViA5aksC1lGyblrtV78Gd2svPX4gv2463oFlc90sZNYOewZkxNsXc4kr45i1eSFL6Lchiv4Bn6MoBX7f6fmEG/KOMVMTx30ILH2Nqe/ta7/IUHcvmQrWewJIXrKfbJ9RQGe3I52zgMvvUG+zEr2kVWj7yRs+gfxlurUxmuDqM39zuHiSQFbg4n53zvOortOIx3HQrAc+wedbyKI2DBIg7inpx39mROdII4SQpJBadmcnLRQqvwEL05MPcTVj/MfiyIfrHVY2nsCo7lH7nt6vc4gV4Mo8x9oCSF4nL+ZxG+DVnD2ZoTeC+3FbiOw1kWx4LjnPv1Ii7P3dyzH/FX/uMrOvEeLEnheY4B/oT9ieocxmV0yl27I5mzPXkBC07h3zma330m/+DfLHc7N2BJCtFn9OFLy7DW/e4x/JHNc9PeVZzJLfEtPu4zSAO5l3o56OZPuZybjBQGLEmhH1R3Z4xlqFRtTuO3uZiRcjnH80CcKxD/JbqdeYxGme7kL7iCG+K5AmzAkpQz53ONRViPupzBYFpmuo0L2Y+x8a5C9diLMJYhGe7i2VzI5gw1XklSBP5jvKqCZQxlcy5kdobbOCTueJWEgEVmb3T/mkvoyN9Z4tYsSRF4gZ9bhCpawt9pz3mZvVstAQ85JCFgtc5g1y7kSjZnSBwzb0hSLk3hYG89KMhihtKRwczNYNsSkCwMWGGEq7/QhsHMc+uVpIjM4cBMBoWwLeJKOvAXFhqwDFjJVsa1dOKPhitJitByDsnxVJqlmscfacclmZo7rE38q5CE+58+Y5PMdOkDHOG2WiU+RSgpKOUcw32WoWQPc3Bm2vIpm8W9CvGfwarBxhkantPcQiUpUhX83HjlEewnWsafb+IPWC0ScZkyKB+7hUpSpC7mRosQiJkZaksNNjRgtXB4SpKK9H9cbhE8giUxXcQfsDZ2eEqSinI751qEwGTrGkzs6cKAZcCSpHS6l5OpsAwewQxY2Q9Yi5yeQZIii1fHZ2pigfh9lak3j3iJMFP3YHmLuyRF43aOY5VlCNgnGWqLZ7AydQbLC4SSFIW7ONmzVyHI0mkCz2BlKmB5BkuSwncLJxivQpGl0wSewcrQLO6ewZKk8P2L0yi3DKHI0mmC2NNF3AHrEHpkqDs/deuUpFAN4Rc+OehRrAq24JD8BqzNGclD1MhQd37h1ilJoSnj51xiGUL0ZYbaUpOHeIZu+QtY9bmUiezn0JQkVclyjuXflsGjWAF25y0upX6eAtYhTOJi6mRuaM5265SkUCxioK90Dt2szLWoDhczKZ6LhdUiX+LmXJu5M1ffqctyt88qqsUKiyCpij5jP8ZbhtDVy9RUo6t7ll8yOdpFRnsGK5sXBr8zz3glSSF4g+2MV5FYyqKMtiyGi4VRBqyBTMzkhcHveAeWJAXvAfr5jLZHspLV4WKmMSh7AasTj/Mo7RyWkqQqq+BKjsrsZaskmpXp1m3KbTxOp+wErHoM4R32MfdLkgqwnEEMdlJRj2SB2oeJDKVhFgLWIUzmT9Q190uSCvApu3CHZTBgBa4W5zAh/CcLww1YHRnJQ7R1WEqSCjKabXjNMniqICRtw5+GNLyAVZ9LmZDZJwbXxlmwJCkIFVzLnr4bw4AVspCfLAwrYGX9icG1meuWKUklW8DhnMsqCxGLeblqbahPFoYRsDoyMvNPDDosJSkMb7EVD1kGTxVEZlNuC+diYdABqx5DeDdXFwYNWJIUlOvZkemWwSNZxHZnfPBPFgYbsAYyKSdPDDosJSlYszmYs3wjhkeyWNTiHKYEe7EwuICV1wuDP/AeLEkq1tNsySOWwYAVo4AvFgYTsPJ8YfAH890yJakIyxjMPnxmIQxYsQvwYmG1AL5jINfm+szVN5bQwC2zALVYYREkAW9zHJMsQ4Libp3c1+BTfsewUr+k1DNYXhg09UtSsVZxBTsYrxLFqzEBXSwsJWB5YdCAJUnFe5ed+K23tXs0S6SSLxYWH7Dy/cSgQ1KSSrGSK30ZjkezRCvxycLiApYXBte0wBJIUhW9wlYM9k7MRPIS4epKuFhYeMDywuDaLbYEklQFS7iAvky0EB7NUqLIi4WFBiwvDFa+y5Akrc8IevEPyixEYi21BGso6mJhIQGrE497YdCAJUlFmsGBDPRVOB7NUmlTbuNxOgUfsOoxhHfYxwqb+SWpCCu5li0YbiEMWCm2DxOrfrGwagHLC4MOSUkq3ly25FwWWQiPZilXwMXC9QcsnxisGs9gSVJlmnErrS2DR7NMqOKThesOWD4xaOaXpCBsy+v0twwGrIyowpOF6wpY+zHRC4MOSUkKRAue5jzLkHieLqiaWpzDO+s6BVVZwKrDUEbS3go6JCUpIDW5mjv92e7RLDPaM5Jh1CskYDXhac6xcg5JSQrYsTxBE8uQYF6PKcwJPLn2Eb22gNWAp9jFmjkkJSkEuzKaTSxDYjmTe6F24SkaVCVgVeN2trNeBVtpCSSpSnozlo6WIaFWWYKCbcftVFt/wDqDQ6xVEXzxgyRVVQfG0scyGLAy4xBOX1/A2pi/WSeHpCSFbGOeY0fLkECeLijOVWy87oB1MY2skkNSkkLXmMe9IcWjWWY04uJ1BawmnGKNHJKSFIkmPMW2lsGjWUacSrPKA9ax1LdCDklJijBibW0ZEsUbXopVj6MrD1gHWB8DliRFqClP0MsyeDTLhAMqC1jV2dXqOCQlKVIbMooulsGjWQbsunqqWj1gtV/bRFlySEpSqFrwBC0tQ0J4ibB4DWi39oDV1toYsCQpBu14yhfoeDTLxEhea8BqbGUckpIUi17cRy3L4NEs5RqvPWBJkhSXvbh1zdeNSGm1esBaYDlKUMMSSFJJjuVSi+DRLNUWrD1gfWRlHJKSFKPfrflGN3k0S5EP1x6wZrDY2jgkJSlG/3TCoJjVtARFW1xZwCrnBatjwJKkGNXiXlpbBo9mqTSa8rUHLBhudRySkhSrjXnU17Z5NEulEav/jx8HrLtYYn0ckpIUqy250SJ4NEudpdxTecCazy1WyCEpSTE7jvMtQky8B6tYNzO38oAFl7HQGhmwJClmV7GPRfBoliILuezHf/DTgPUlF1olM78kxX6Yv8Ob3Q1YKXIBX647YMGNPGydHJKSFLPm3OmeNQaeLijGw9z00z9aM2BVcAKvWquC+Q4tSQrWLvzBIhiwUuBVTqBi/QELFrMXY6xXgepZAkkK2B/Y3SJEzCkyCjWGvdY2UfvaX/Y8nwFca80ckpIUq+oMY0PLEClPFxTmdvZm/toH79ot51z2Z4aVM2BJUow25TaqWYYINbAEVTaD/RnE0sp+HVTuMXpwCcusoAFLkmKzH7+0CB7NEmcl17IFj1X+F6qv858vZQi91vXP9T1PqkpSOK5iS4vg0SxRnqU357JoXX+l+nq/5H3258DV3w8th6QkRagOt1HbMng0S4hPOZE9mLy+v1a9Sl82nO5eLFwPT6pKUli24HcWwaNZAqzkWroyrCp/tXoVv3IpQ9iCJ6ytQ1KSYnAxW1sEj2Yxe4Ie67swWHjAAniPfb1Y6JCUpBjU5BYndPZoFqNPOZF9ea/q/6B6gQvwYmFlvGotSWHqzW8tgkezWBRwYbD4gOWThZVpaAkkKVR/oI9FCJ3zYP1UFZ4YDCZggU8Wrk0TSyBJoarJTb4pL3RNLcFqqvjEYHABC7xY6JCUpKj14SKL4NEsIkVdGPxBqS8g6MhQ9rMXgC/YxCIUoBYrLIKkgi2jB9MtQ4hm+/ZHAJ7ll8WdufpO9RJXwIuF32lmCSQpdHX5fxYhVN7wUtKFweACFnix8Bt1qOuYlKTQHeR1kxA1yP1kGCVeGPxBcO8o92LhJnzhtlllXiKUVKz36clyyxCKzZiZ6/aXfGHwB9UDHPB5v1jY1C1TkiLQkV9ZBI9kgQvkwmAYAQvyfrHQgCVJ0biY1hYhFHm9nziwC4NhBax8T0NqwJKkaDTg7xbBI1lgipxKNNqABfm9WGjAkqSoHMneFsEjWQACvjD4g7DmxB3OM/yOC6iTo05yogZJis4/GEVZbltfP6Tja75mdFzO3/krS8L58vBeOrCE33Nrrp4s3Mj9nSRFpgfHc1sO292Ri9mPFg6AkgX4xODaVA915d9nfw7lo5x01caOVkmK0BBq567NB/IOJxmvSvYRh4ZzYTCqgAXwMN1y8mShAUuSotSOM3LW4m7cTT07vkQruZaePBz2YqpH0JSlDGELnjBgSZICdTENctXeP1LfTi/RE/QI/onBuAIWwHvsm/knCz1lK0lR/7A9N0etrc7+dnlJPuVE9uW9aBZWLdKm1c/0k4XznaihAL4qR1IQ5tGBuTlpa3O+ssOLFuoTg2vPw1Fawu/pkdlpSJv4umdJilhTfpOjH6Yq1rNsxe+jjFdRByyADzL8ZKEXCSUpaufkbO4mFSqCJwaTEbAAHqY7l2XwXeje5i5JUavP7yyCKrGcy+ge/hODyQlYWb1YaMCSpOidSkuLoLWI4cJg/AELvrtYmKUXHRiwJCl6dTnfIugnVsVzYfAHNWMuwMNMoHdmunMzR7RS41/xnDQPXS0aAo2pQT02oiUbsRGb0Joadnmm/ZwrcvMsoarm7bj3cTVjL8HnGQpYrR3RSo1pjMpRa2vTgc50ohvb082wlUGN+CV/sQxazRdxr0D8AevLDHWnAUtKphVMYcr3h+Kt2Z492MWJVTLlHP4R1702SqTY00V1SxCgNo5oKfEW8jxXshfN2Z9/8rEFyYgNOcEiyIC1ulkZ6k7PYEnpsYTHOJv29Odm5lmODDg34neTKNliTxeewQpSA5o5pqVUKWc0p9GS43jdYqRcN/axCEpOujBgBcuLhFIaLecutmVnHqDcYqTYeZZA3/MMVsYClhcJpfQaxxH05hELkVoD6GYRlJR0YcAyYEn6wQQOZkdGW4hUqsYZFkEGrO98lalT8gYsKf1epj9HZuzHX16cSH2LIKCMrw1YZU7UIClx7qcbN1JhIVKmKUdYBAFfxH/ypnoCyjAzQ13awVEtZcRczmBfz2OlzpmWQJCEGe4MWMHq6KiWMuRJevO4ZUiVHehlEWTAyl7A2ogmjmspQ75kfy528oZUGWQJlIRkYcAK2uaOaylTKvgrA1lgIVLjhAS8ZVcmi0QErGz9NvQioZQ9j9EvYz8Fs2xj9rIIuVfDgAU782cDlqSEG88uvGcZUsKLhBrCznkPWAN5ikaZ6lQvEUrZ9BH9eNcypMJBNM5ku3yZddU1ZhSH5zlgncJD1MtYpxqwpKz6gv68ZRlSoC4HZrJdtezaAtThbk7Ja8C6iJsyeCuilwil7PqavZhsGVIgm9ONGrAKU5ObuSJ/Aasaf+eKTJ7ubEUDR7WUWV+xFx9ahsTbO5NT5hiwCncR/4wr6cSz2Nrcxa8z2pnVvEgoZdon7B3/W860HnU4IJOtUuF+wQPUzUvAasgjHJ3hzuzmeJYybRpHsNIyJNzhGWxTI7u1KIfwWByPPUQfsFrwPPtkuit7OJqljHuWn1uEhNub+plrk28KKdZuPEuLrAesdoxh64x3ZHfHspR5t/Bvi5Bo9eifuTZ5Bqt4W/MynbIcsHoyls6Z70YDlpQH5/O2RUi07N2F1dxOLUF7XmCrrAas/oxl0xx0YidvRJRyYBlH+IbChAesrD2p3tJOLbF+z0V5XjO6gHUwj+Xk+nHNqE9DSorF+/zCIiRYa3plrEUb26klasITHJm1gHUy92duzvbKeZFQyoc7eNAiJNjeGWuPZ7BKV4e7onpEJZqAdRH/yeCc7QYsSWfxlUVIrN0y1p62dmkAavCvaOZ3rx5BU66Pc6r6WDhRg5QXs/ilRUisXTI293l7uzQgkZz2CTtg1eEuzsxd13kGS8qPe3nUIiRUQ7bLUGs2cpqGAJ3MA2HfuFQ95ME9PLrbyRKkUzzT8kuKxXkstQgJtXuG2tLZ7gzUQTwe7qN3YQaslrzAgFx2Wy0vEko5MoPLLUJC7ZqhtvSyOwMfHaFOHhVewOrAmGin9EqUPo5cKUeu4gOLkEjbUSMzbelpd4ZQ0xCnPw8rYG3NS3TMcadt5biVcmQZF1mERGqUoesJve3OEIT4Ar9wAlYsr1VMlC0dtVKuPMiLFiGRdsxIO2p5ZSQkLRjNPmkJWIfyGI1z3mG9M3RaWlJV/NYSJNIOGWlHL+rbmSFpwCMck4aA9Uvu9xk66vu8h5QzLzDCIiRQVs5g7WBXhqg2d3JBsgNWNYbwf5G+QDq5vAtLypshVFiExOmckTf49bcrQ1WNqxga7OvBgwxDNfg3f7KXDFhSTr3BYxYhgQfOLEST6pl77U8SncOtQc7vHlzAqsM9nG7/GLCkHPuzJUigLEw2uhUb2pERGMRDwc3vHlTAasrTHG7frGZLSyDlzqs8aRESJwvnfg6wGyMykOeCCrPBBKxNeJ5d7JcfaU4HiyDlzlWWIHE6ZeAlyQfbjZHZntG0TkrA2pwxToC2Fj7zIeXPM7xtERLnhJSvf3uviUSqO2PomoSAtS0vsbn9sdYULCl//p8lSJyTgn06LHLH2oURa8s4doo7YO3BM2xkX6yVZ7CkPLqXzyxCwrSnb6rX/wS7MHIb8BT7xRmwjudxGtkPldjSCVelHFrBLRYhcU5K8brvSBc7MAYNeIRT4gpY53IbteyDStV2qgYpl/5DuUVImONoldp1P8vui0lNbirlNe7FBqxqDOEa52xfDy8SSnn0IaMsQsLU5cKUrvlGHGH3xaYaVzC02KxT3D+rwU3O2V4F3uYu5dNNliBxzqBlKtf7bOrYebE6p9irdcUErAY8Wtp1SQOWpEx7lFkWIWHqpfIcVmN+adfF7nj+R4MoAlYzniz1zvrcaJfiq/6SireCYRYhcX5JtxSuczM7LgH247nCZ0woNGC1YnTKH3eN1naWQMqlm6iwCAlTmxtSNh9WM35ttyXEtrxAmzADVjdeoZd1LoAvEJLyaRpjLEIC98g/S9X6XswGdlpidGVcYedACwlYfRjNZta4IP0sgZRTt1qCBPpbim517+r9VwmzGaPpE0bA6sBjztlesK1oYhGkXHqYFRYhcTbgHmqmZF3/6fODibMRT9I56IBVj0fZ2NoWrEbpbzOSlErznA0rkXbl0lSs58nsYWcl0IY8RL1gA9Zf6WFdi+JFQimv7rcEifQbDk38Om7mS8MTqwd/DTJgdeEX1tSAJakgj3iRMJGq8R96J3oNa3EXTe2oxDq7aqecqhawhvjOwaJtW8z0ZJIyYK4XCROqCU/QKcHrd7VPoCdaDX4fVMBqxWHWs4RfIr6RUMorLxImVUueoW1C1+1Erxkl3mFVmUa8KgHrcM9flcSLhFJe/c+LhInVmsfZJIHrtSM32DmJV6sqJ56qErB8MU5pdrUEUk7N42mLkFjdeJGuiVunh52cIRX2DyZgbWMlS/w94l1YUl49ZAkSrB1jEzWVTneec0KklNg2iIC1Cc2tZElqs7NFkHLqcd9JmGjNGcURCVmXHjxrvEqNDdZ/gXn9AauFdSzZAEsg5dTnvG0REq0e93FtAi7L9TFepcx6322z/oDV0CoasCQV7TFLkHhn8yIdY12Doxnj6YyUaVR6wFpuFUvWK5HPqkiKwuOWIAX68DqnUC2WZdfgKu6mvp2QMstKD1hfWcWSVfOdUlJuvczXFiEFmnAzL8TwUrjNeJwLLH8KzSk9YM30HFYAvEgo5VUZT1mElNiZt/hrhDfGVONMJnp8SKXlzCw9YJXxlpUs2V4xnXqWFD8vEqZHLX7LdH4dyQW7LjzP9TS26Kn0JmWlByx41kqWrGUMJ54lJcMTlFuEFNmIv/M+Z1MvxGW05t+863s+Uuy59f+VqgSse6xkADwJLOXVLN6wCCmzCdfyCVeF8mxhK/6P9zjDl9ClWhWSUVUC1ru8Yi1LtrclkHLrGUuQQhtwAVN5nMMCu2BYnb24jxn80tfhpNwrvBtMwIK/WM2S9V//nBmSMuo5S5BS1dmHB5jN/Rxd4j68N39iOk9yBLUta+r9uSp/qaq3Xj/JXla0RIfwP4vwvVqssAixOo+hFiEyDfjaw2rqLed1xjCGccwv4F9txK7swz5sagEz46mqXZOqasBqx9s0saoluZnTLIIBy4CVU2PpaxEyooz3mMxUpjKFz5nDop/893q0YhM2Ywt609tglTnz2ZIPq/IXa1bxCz/kKEZSw8qWYH+q+dpXKaeeM2BlRg260nW1/72COSz9/n8192REppVzfNXiVdUDFjzJmdxQxXu2tDbfPJWi73ZRitce1E15C+bwPO+nKGD93kGXUbV9GVqO4tUZjKjqXy5s+stjuTnUmUEkqeoqeJgzmZ2Kda3HXJ8ck1JtKadyV9X/eqHzi/fhdrpbZUkJMZUdmZuKNX2eXe0uKbUmcQJvFvIPCr1Q8zk3s5Qtfe+3pETYkA15NBVr2pb+dpeUSnO4lBMLvcmnuDfkNWQQg9jemkuK3Uo2Kuix+bjsyvN2lpQ6rzCMYWs8KxpawPpGV47muFBeJCBJVbd7KibyrMc858KSUmQmD/Mfxhf7z6uVvAJbM4ijaWFPSIrJoTycivV82fP+UirMZQTDeKa0qZVKn3bhDc6lNQdx32rzgEhSdKqlZD3H2VVSwi3lPg6iJYMYVerMlcHMa7WCRzmKlpzICFbZP5K0Fi9aAimxyhnHebTmKB4N5k0jwf/y25RjOJ7e9pWkiBzGQ6lYz5Z8bmdJCTSeO7ibT4P90rBOrffkOI6ljb0myYD1vffZ3O6SEuRj7uJOJoTx1WG9+mYCv6U9/bmJefafJAFeJJSSYx430Z/2/DaceEWo7xYsZzSn05IDuZ0l9qWk3PM2dyl+yxnBiWzK6YymPLzFRPX0TTMO53h29mXRkgKXnkuEPXnX7pJiU85Y7uCBaF6vFe3jzW04luPpYR9LymXAqs4cmtphUgwmcgd38XF0C4xj/pgeHMEg2tvbknIWsOApBthhUqQ+4wHuZ2z0v6fiSJFD6Mie3MoC+11SrrxiCaTILOBW9qQ150Yfr4jtnqhynuFkNuZA7g9mQi9JMmBJAqCMUZxIK07mmTBvZF+XJLxiojlHcSw7peZ1F5KSJU2XCDdilh0mhaiCF7mLe5kT94okJ9R04DiOpatjQ1KGAxZ8QAe7TArFFO7iTqYnY2WSM23CdP5CN3pypS+TkJRhXiSUgjeHG9mF7vwlKfGKxM1LNZHBtGYfbmeR40WSAUvSOi3idvZhY85gLBVJWrGaCSxWGU/yJA04iOPYK5FrKEkGLCleq3iKO3mExclcvaTfWL4BhzPIG+AlrUO67sGqw3zq2GlSSSYxjNv4IsmrmI7g0pU3qed4kpSBgAWvsJ2dJhVtCVszJfmrmY53A07hYUeUpIx4zRJIJXggDfGK1Lx8eYQjSpIBS1JaEkFaAtYTrHJMScqEVy2BVLSVPG3ACtJcxjmqJGXCFOZZBKlIo9Oy/VRPTUlHOqokZUIFb1oEKetpID0Ba7ijSlJGeBeWZMBKjCm857iSZMCScixFWaB6isrqRUJJ2eBt7lJxUjSngAFLkqI205faS1lPAmkKWKOZ79iSlAmvWwKpYPPTNKNAmgJWaua+kKT18C4sqXBPsNKAFY7/ObokZYJ3YUmFS9Vr89IVsB5lmeNLUga8RoVFkAqyjMcNWGFZyLOOMEkZ8DXTLYJUkCdZYMAKz1OOMEmZ4EVCqTCj0rW66QpY1djXESYpE7zNXSrMwenKLOkKWL9hb0eYpEzwDJZUmD24wIAVju34s+NLUka8xSqLIBXkMvoasILXjPuo7eiSlBFLmGgRpILU5E6aGbCCdgttHVuSMsSLhFKh2jKMagasIJ3DIY4rSZnysiWQCnYAvzRgBWcLrnRMSTJgSeIq+hiwgtGQ+6jriJKUMZOZaxGkgtXhPhobsIJwPV0cT5Iyp8K5sKSibM5NBqzSncbxjiVJmfSSJZCKciSnGrBK05NrHEeSMuoVSyAVaSg9DVjFq8ud1HcUScpswKqwCFJR6nNvshNCsgPWdWzhGJKUWV8z1SJIRerOtQas4hzJzxw/kjLNqRqk4p2S5Lu0kxuwOqbhGQFJKom3uUuluJ6uBqzC1OHeNMxyIUklGWMJpBI05D7qGbAK8Y90zNMqSSWZwiyLIJWgF38zYFXdAZzlmJGUAxWMswhSSX7JoQasqmnNbWl5V7YklciLhFKpbqG9AWv9anIPGzhaJBmwJFVJU+6ltgFrff7KTo4VSbnxFgstglSibfmLAWvd9uUCx4mkHCnjRYsglexCDjRgVa4l//XuK0k540VCqXTVuJlNDViVrcudbOwYkWTAklSwjbiLGgastfkTuzs+JOXOKyyxCFIA+vEHA9aaduVix4akHFrOCxZBCsQf2NOA9WMJO7EnSREaZQmkgFLNHbQ0YK2+FrfTynEhKaeetgRSQDbmzmRkm2QErIvY2zEhKbfe5XOLIAVkd35jwPrGdlzieJCUYxU8axGkwPyFvgYsaMa91HI0SMq1pyyBFJia3E3zvAesavyHdo4FSTk3igqLIAWmNbfFPXF53AHrHA52HEjKvc+YbBGkAO3P2XkOWFtzpWNAkoAnLYEUqL+zfV4DVkPupI4jQJKARy2BFKha3EmTfAasf9PF/pckAMbwlUWQArU5N+UxYJ3Ocfa9JH2rjJEWQQrYEZyWt4DVg6vtd0lazSOWQArctfTOU8BqwH3Ut9claTVPssQiSAGry100yE/A+j+62+eS9CNLfOmzFILuXJuXgHU8J9vfkrQGLxJKYfgZx+chYHXkOvtaktZiBGUWQQrBv+ma9YBVh/tobE9L0lrM4kWLIIWgAfdRL9sB6/+xlf0sSZW4yxJIoejFVVkOWIdxln0sSZW6m6UWQQrFLzgsqwGrPTfbv5K0DvOdblQKzc20z2LAqsmdNLV3JWmdhlkCKSRNuZOa2QtYv2dH+1aS1uMJZlkEKSQ78vusBazNGWy/StJ6reRuiyCF5rd0zlbAupQ69qokVcHtlkAKTW0uyVLAasPh9qkkVckbTLAIUmgOp012AtZx0d1UJkmpd6slkEJTk2OzE7AOsj8lqcpuYbFFkEJzcFYCVl362JuSVGXzvNFdClGfKF6bE0XA6kEte1OSCvBPSyCFphbdsxGwNrMvJakg43nBIkih2TQbAaupPSlJBfqbJZBC0ywbAavcnpSkAj3G2xZBCklZNgLWPHtSkgpUwT8sghSS+dkIWB/Zk5JUsHuZYRGktCaTKALWVJbZl5JUoJVcahGkECxjajYC1nJetTclqWDDmGYRpMC9yvJsBCx4yN6UpIKtYohFkAL3YBQLiSZg3e1FQkkqwr2MtwhSoJZxT3YC1ixus0clqWDlnG8RpEDdyqzsBCy4lIX2qSQV7LloLmdIObGQy6JZUFQB6xMutlclqQgXepOFFJiL+SRbAQv+6a3uklSEGVxpEaRAPBTdi9SjC1gVnMRL9q0kFeyvTLQIUsle4iQqshewYCH7+n54SSrYCk6J4t1pUqa9wL5R3g9ePdLGzWcA/4ouPUpSRrzC/1kEqWgV/IsBUbyBMK6ABSv4BXsxxb6WpIL81hmxpCJNYS9+wYpoF1o9hoaOoicnMM4el6QqW8ZxLLEMUoHGcQI9GRX9gqvF2OgODGAHetCVRo4ASUU7LDfPKJ/ODXa3VAULmcJEXuZppse1CtUSUYhWdKYznehMFzpQy5EhyYC1VndwnB0urcVKpjOVabzHNKbxWfwrVC1xJapJGzrQgQ70oDvtYrmIKcmAlUx1eZ7t7XIJgLlMYiLTmc50JiZtQt6aiSvXKqavdkKvNpvRg+7fBq5NHE2Scm0Zh/Iqm1oI5TZSfROnJjGRqSxK8qpWS1Vhm9OZLt9eTOxEPUeaJPJ1BgtgG56jod2unFjKe99e+JvKNOakZ8Wrpbbk1WhN5+8/7ajhKJQMWDmxByOoa8cro8r4kGnff2amdfbMahnpjlq0/v6+rQ60z0y7JBmw1mZvHqW2Xa/MmPvtZb/pTGdyNiYkqZmRrln5ozu3GtOJznSmC53oTGNHrqSMeZITuT0ze3Dl0QKm8R5TmcY03mNB9hpYM6Pd9gZvfP+/NqbLt9NAdGFzf/NJyoR7WMS91LcQSo0VfMDUb6dRmMqXWW9u3i6l1aAtWzHMnZKUIXm8RPiNvgynmQNAibeEE3mTj/L1yvK8zTJVxnQe5DJHu6QMGEc/ZlgGJd6feIDp+YpX5HQaz6F84XiXlAET2IYnLIMS7TP+lcdm5zNgLfYclqSM+Jr9+UtaH2RXLlySz9eU5/VFNDfE9/pHSQpUOX9kAB9aCCXSe/w3nw3Pa8BaySWOekmZ8Qw9uJJyC6HE+SMrDVj5cicTHfeSMmMJg9md8RZCiTKe+/La9PwGrDJ+78iXlCmj6cORXixUgvwuv+dVq+e42//HS459KQO8wfsH5dxPDwbzuaVQAozjsfw2vnquu36wo1/KgDmW4EeWcCXtOIl3LIVilusrRXl/KfKT7OUWIKXaUjZisWVYq904nkNpaiEUi5EcYMDKr+6M93WpUqpdw/kWYR3qsB/HsKev1FHEyuid74fJquV+CNzMKW4HUmq9ym75nMSwQDXow57swfY0tBiKxL/4Rb4LYMDamGk0dkuQUmg5t3ARiyxEAarTni3pRS/asCkb5/w+XIVnIZ340oCVdw9yaM5a/AQP2+1KuSXM4VVvby9RTTZmY5pQg8bUoIlxKzSHMyBnLb6Po+x2f89NoiJnn3IOsuMlKSIDKc/dcWaycd3fKwfSLXdtrsZ/ae8+T5Ii0JFhObxa1JWBee94LxG+yI65bPfb7MRS93ySFKq6jKNPLlv+Ktvnu+vzfgZr95zGK9iSv7vnk6SQXZfTeAXbsZvdn2dP5+66+OqfQQ4ASQrRcbk+xjyV787P9yXCrXgj1xVYzPb5ngZOkkLUi5epn+sKbMvr+W18vi8R/j7nAbMB9zvpoCSFogkP5jxe5fyNv3kOGF2Z6FOU3MvR7gclKfCj6/0clvsqlNODKXltfI0cd/xVbOU+gJ7M52XLIEmB+g3nWASq0YBH8tv4vGrN+9R29ANlHMATlkGSAjOAx3N9AuMHK+jIzHw2Pb+XyC4wXn2rBneyuWWQpIC0527j1bdq8+u8Nj2vZ7Ca86G3d6/mHXZisWWQpJI15CV6WobvLaEds/PY8LyewTrPePUjW+TyVQ6SFLRq3GK8+pH6nG0R8qMBX+V68re1fy5yYEhSif7g0WSNz9c0yuNQyOdV4nM5yL3AGnbndd6zDJJUtL250el/1lCPObyUv2bn8bJQHabTyhG/FnPZjvctgyQVpTOv0NQyrMUXtGdZ3hqdx6R9ovGqEs14hCaWQZKK2oM+aryqREtOyF+j83cGqwaT6eRor9STHMAqyyBJBanF4+xhGSo1nS55O7bk7wzWEcarddqb6y2CJBVoqPFqnTr44qDse8MnOtb78ZFaSSrErz1yrPfztpMBZdt+DvIqfFYx0KEiSVW0L6s8clThs2++hkXe8uQYdnZfUAUL2Zl3LIMkrVcPXqSxZajSEbifASurdsjjTBxF+ojt+dIySNI6teRVWluGKtqFsflpbL5ucv+Do7vK2jKC+pZBktahHv8zXhVgcJ4am6czWFt4i12B7uMYyi2DJK1VDe7nEMtQkD68lZem1sxRt/7WeFWgI/mKX6RwvTdgczakCY2BpcxnFp/wKRV2qJSQH/abshktaEI9YAHz+YoP+DqFLfl/xquCXcix+RnoedGBqbmKk0H5FVen4odCB7rRla50ozPN1vI3FjKJ1xjNaGbbqVIsNmJXdmVbuq/11b9zmcZkpjCFyUxPxZSUF3GFnVqwMrrl5a23+QlYN3C6I7sIFQzijkSuWUO60JVudKUbHaldxX9Vzhju5z5jlhRptDqSI9ilynf9ruB9JjOFyUxhKosS2aajudPXOhd5ND7TgJUlLZlBXcd1UZazN6MTsi4bf3+eqgttS/ieZdzLtbxp50qh68M5HFXS/vcjpn5/bispzzbvwWNV/lmnnx5TOvCZASs7/saFjuqiLaAf42Nbeiu604PudKAnLQP95lFcZMiSQtSDP3F4oMeZeXzAdCYxkUlMoSymdvVkjK91LumIfJEBKyua8BFNHNMl+JSd+DiypdWmE93pQA+60y3UySIquIPzmWMHS4FryiX8ghohLmElM5nERKYzibcjvJC4KS85NUNJFtKWuQasbPg9f3FEl2giu4S6QWxId7rShe50pW2k4/JLTmO4HSwFaiA3sXGEy6vgI6YwialMYRJfhfqD/QW2sINLPipfZsDKgvp8yEaO55KNZl+WBvh91WlHF7rThW50o3mMLavgOi5guV0sBaIOf+cXsR5d5jCZyUxlElP5MNDZ/OrzpC9cC6SH2rLYgJV+5zDU0RyIpxjIipK+oTab0ePbe6q60iBBbXuZg5hlF0sla85DiXrj3Ao++faerYlMKfGgXov/sZ9dHNCR+f8MWGlXi/dp41gOyF2cUPCvwQ3oRrdvz1O1S/BjzdPZJy+zs0ih6cQTdEjs2pXz4bfntiYzueCpTatzJ0fbxQH5mI6sNGCl20n815EcoOs5qwp/q9X3N6l3SPDO9qe+YA8m2cVSCfHqOTZNzdrO/fZ5xOlMYvJ6fzpW43rOsIsDPTrfZsBKd/vepYfjOFB/4Y9r+dPadKYrXelOF7qm9jXRn9GXD+1iqSjtGEerlK77EqYwlUlMYQrT1norxBX5mFogQlPoke233WY9YB3Kg47iwF3I3wFoQsdvz1P1oEuoj2NHZzJ98/D4sBS4xoylV0ba8vm392xN591vpzY9l2vs4hCO0A8bsNLrJXZwDAeugtFU0C3gaT+T4mn2yfavKikE1XmCAZls2RdMpoLdcvRiuei8xnYGrLTak6cdwSpYLmZokQLeapxtUIUbwCgDVjo9w+6OXxVsFbvwsmWQqmwHxlDTMqiIo/SeBqw02o5XHL0qygT6ZP0BYikwNXmNLS2DirI9r2a1adUz3G2DHbkqUk/OtwhSFf3KeCWP1GvK7hmsrkzMdHxUuOaxecHTEEp5tAEf0NQyqEgV9GJiNpuW3QjyW+OVStCU31gEqQp+Y7xSCapxYXablk2teZ/ajlyVYCGbscAySOvUmE9oZBlUgpV04qMsNiyrZ3kuNF6pRI042SJI6/Ez45VKVItfZbNh2TyDtREfpvZlLUqOKXSzCNI6TaarRVCJltCO2dlrVjbPYJ1rvFIAurKVRZDWYSvjlQJQn3Oz2KwsBqxGnOV4VSCOtASSW4hC90uaGLDS4Oc0c7QqEPtaAmkd9rMECkQTzsheo7J3D1YdZrCJo1WBqGDjLN4ZIAViI770FcgKyOe0Z3m2mpS9M1jHGq8U4A+QnS2CVImdjVcKzCYcm7UmZS9gnec4VYC2sASSW4c8ehuwtnCTl4cQya1DKRxPvQxYSba/Y1SB6mEJJLcOReIAA1aS7eQIVaA2950A0lrVZnOLII/g+QlYzrytYNWko0WQ1qIjNS2CPILnJ2Bt5ghVwJypWvLnrDyC5zxgVaeOI1QeRiR/eiiF6mQrk2TtDFaFI1QeRiR/esgjuAErSOXMcYTKgCVFoIslUMDmUG7ASq6PHKEKPGA5W7X0U9X86SGP4PkKWK87QhWwhj46Ia1hMxpaBAXsNQNWkj3vCFXgvNdEcqtQ+EYbsJJsJEsdowqYl0IkA5bCtpSRBqwkW8jdjlIZsKSQeYu7gnY3Cw1YyfYPyhynMmBJofIMloJVxj+y1qTsBaxJ3OBIlYcSyZ8dSpEbmJS1JmXxAfRmvEVbR6sCtAFzLYL0vaZuEQrUR2yVvTFVPYMdNZejWOZ4VYC830RanWd1FaRlHJXFyJ7Nt6G/wtE84JveU2glk/iIj/mCeawE6rEhG9KGnrSJ+XDysp0jfS/uC4QfMYGZzOYrlgG1aUJL2tCW7tSyc1JnFUfzShYbltUQ8giHcLcT4aXGcp7lcV5lfKXnHpvRhz3Zh96xXNb2fhPpxz854lDBeJ7gad6q9GxHXbZkW/ZjN+rYSSmxiGMYYRnSphfjqUjAZzFzWJWINUnip4wnOJJGVe7VTRnM+5Gv5aNuTtJqhke+Db7HRbSq8vo15iiepNw9bCWfVcxhcSLWZDy9sruZZPsta3U4n4toGsp3lzOfhSxmCXNZzGIWMZ/FLGYBC1jCYuaxiCUsYh4VwE48R233yj+xmBv5F+8XMWr34LfsHuGavkdnu0tabYvoGOHSnuFynqWi4H/XmbM4jfp210+sZA/GANVoSkPq05CmNKA+jWlMAxrQhIY0oAHNqE8DGtEkpLu153ElV7PcgJVezTiZn9GjgNOV38SixSxmIQtYzGLms4jFLGYuS1jMQuazpOAZ48/kerfr1aziPwzh8xK+oS+X0j+itS2jQZZ3A1KBP10XRXZ7ycv8nmdK+PcbcTG/8I7cHzmNmwv8F/WoTxMa0YD6NKMBDWhIExrQgMY0ogENvo9qVTWR//DfrD+LWi0nA6odu9KDtjShnKUsWcd5p/DcwOlu2d8ax6lMCeB7TuRqmkWyxr2YYLdJAPTk3UiW8zXnMyyA7+nOzexot33rOn4Z4rdXfi6sPvWoznw+YiKj+dCOUJBqMdpr/1SwhF8FeMK5JQ9FstZHOIClbx0RySF/j+0AACJWSURBVDb3IC0DW+MaXMhS975UMM6bVZRNGzMz95v3B/QMvK7nsjL09f6Dw1f61h9D395Wcm7ga70FM3K///20gAcFpJTpw5Jcb95jaRFKXXfhi5DX/E4Hr/StO0Pe2r5ij1DWuznP5Xr/u5RtHbzKshNyvHnfG+IkgJ35JNR1f8OhK33rzVC3tZl0Cm3Na/NAjvfAP3PoKuv+X0437gdDnmO5XagXABZn8rVSUuGqhzqD0schTwBRg3tyuge+yqGrPOyeHsnhxv1IBK+w2DzUC4W+QFz65qdMeFvZ53QIff1rxzBNavyfkdRw6CoPGvJ2zjbud2gQSWV3YllobdjHgSsB+4Z4j9COEe2B38nZHvgtXxwXz9kURW8R+/Npjto7l0NZHMmSXgxxrjHfRygBdAntm3/JSxHtgQ/kqxz12OccyCIHrgErLz7loBzNDH5CEa/DKdYwbjVgSSEK60XPt3BLZG34kJNy018rOJiZDlvly8icnJz+b8R1bcLHobRjtENWgpAmTP4kpLfGVu62nOyBH3PIxsUzWPHZNBet/JxfRbzE+ZwRyvd6BkuCsM5gnRLqi8rW5ny+zEV/ObWocmcDynLx6+nYWKobzlNCzR22yr3mIT1lHId8zEpY5p4rLp7Bisuuuaj9BO6JZbm/pSyEb/UclhTGVlDG72Jpy528k4uj/C4OWwNW3gJWHvyB8piC3V0GLCkEYVwgHMbEWNpSzp892siAlT39c9DGd2I68Q/w/1JyaJHSpWtKttaqeSimaOfRxoCl0GxArxy08kYqYlv224xLxaFFSpfgf2aMZkJsrangphz02RbehWXAypM83IG1hDtjXf6/UnBokdIm+J8Z18fanttZloPjvHdhGbByFbCy7+HIH7v+sUcD33G2o55DV7lWj3YBf+NShsfaoq9jvJHBI44BSyHon4M2joh5+Yt4JvCtpZNDV7nWOfBjxlMsiblNI3PQb7s5dA1YeZGHO7DKeDr2dXg08G/0IqHyrWsKttJCPRnTs85R6uVdWAasvMjDHVivMyf2dQj+5Tbe5i4DVrBeiL1Ns3gzB0d678IyYOUmYGXfawlYh2mB3wXmGSzlW9BbwNd8kIBWveFRRwasrOifgzaOT8A6VAS+4/QMlgxYQXo9xqlcfpCH+dz7O3gNWHmQjzmw3k3EWkwK+Ps6u8Uo18eLoB/zmJKIduUhYDkXlgErF/LxFsIPE7EWnwb8ffVo6wBWbgU/UcnMRLTro1wc670Ly4CVi4CVfRUJuMUd4JPAv9G7sJRfXVOwhRZjlkceGbCyoX8O2jiPVYlYj9kGLCnBo392Itq1nIUeeWTASr983IG1KCHrsTIFv+GltOiagi003XusMHkXlgEr8/JxB1aNhKxHmQFLCkzwZ7BWJaRlNXNxtPcuLANW5gNWHiRldxX8I+BeIlR+ZffnRY1c9J93YRmwMq5/LlpZNyHr0Szwb2zORg5i5VKLEC4xNUtI2+rmogf7O4gNWFmWjzuwoDGNErEeG/srXkrwyE/Gz5Wm1M9FD3oXlgEr03bNTcU3TcRahLH79iKh8qlbSrbQtO6tojjeexeWASvTASsv2iRiLTobsKSAdE3JFlq41h6BZMBKv91y09LemV2LLg5jGbAytZ/YyiOQDFhptwE9c9PWbROwDjVDOdvkGSzlUxgjv2cint/bNjd9uAUbOpANWNnUP0f1TsIua2vqhPCtbXJyQ6y0uvqhXEirl4izR/kJWNW8C8uAlVX9ctTWdgm4u2K/kLaZzg5l5U6XkI4W+8Tesh5slqN+9C4sA1ZG5ev690Gxr8G+IX2vFwmVP2GN+vgD1kG56sf+DmUDVhY1z9EdWEnYbbVm65C+2ZmwlD9hjfodaBVzyw7MVT/2ci4sA1YW7Zqzau8U86W0U0Krt2ewlD9hjfoanBxruzqxXc6O+f0czAasLAasfKnGGbGO7JNS91teSq7wRv0psR6HzqaaRyIZsBzWaXNyjM/bHUjb0L67c2JeZi1FowadQvvu9uwfW7saMih3fdnf4WzAyprmOXkL4eqacVZMS67Gn0L89jq0c0ArVzqEMuXJd4bEdhbpbJrkri+9C8uAlTm75rLWv2ODWJZ7JFuG+v1eJFS+hDvi+3BoTD8BL8jlUd+7sAxYmQtYedSMC2NYah3+HPISvM1d+RL2iL801DNkSfsBGLf+DmgDlgErC34Vw6XRP4b+/KJnsJQvXUP//osjb1NvzvFoJKXfBpRRkdPPW9SKtNZbsCL0No1zSCtXXgx9m1pJn0hbVIvXc7tPLveNhJ7BytYvhvxWestIf5vWZ1gEga67Q1qewQpUTf4T6VPHQ0KbiDj5fCOhAStT+ue69X+IbK7katxM7wiW05SNHdTKjZY0i2ApvRkW2dOEBzM45z/5ZcByOGdklN0Z0Z1YF3FMRG3yNnflR1Sj/bCInurrzm05P/b1d1AbsLIij3Ng/VhDhkcwd9QgLousRd7mrvyIbrRfzvGhL6M9j9M45z3qXFgGrMzY1TrTltFsHuoSjuSWCOtswJIBK3g1uDXkiNWWZ2jjkd+5sAxY2QlYgjY8G+L0CT/jrkhfYOMlQuVHlKO9BreG+h7RMbS3Q/EioTLj7dw+DvzTzwIOCmWXfEXkLfnIYa3c+Djy7esaaoTQjn2Z617428/bDmtlQfMcz4G15qeM3wV83rQFT8Qyk0wrh7ZyYWPKY9jCRrJRoK2ozu/cE/9oT+xdWMqAQ92Y15imM7h7Og7gs5hasYihtHR4K9M2YgjzY9rCvuSwwNqxOc+65/3J5xCHt9JvqJvyGp+lDA7g3WPtuC/mdixjGJ0c4sqkdgxlccxb2D20LbkddfktS93rrvEZ6hBX+o13U17rZybnlBCymnNFQnaaZQzP8ZzQyqZeDGNlIravFdxQwrS+tTiB6e5tvQtL2eQdWOv6vM+vingr1pbcGPsv65/ekTWCPRzsyoBqDOCxWO66Wtfl+BvYouCWbMSv+cC9rHdhKbsOcUNe72W2ezisihP/deSCCF47W+xnPKdQ1yGv1KrHabyb4Hs3f1XFufSacBj3sMy9q3dhxf1rReEayjkWoQpWMo4XeIfxTKf8J/+tPl3Yhu3om4LZp2bzH/7JJ3aoUmZjfs4vijifHLVJjONVXmcaS37yX6rTgd5swa70jXROvDQfnc6zCAasNHs7kpcPZ8lyvmI2X307PjdmM5qmrAUreISrecmuVEpsxZkMSt3Z17l8ypdUALARG7JhAA/O5Mt4trQIBqz02oDZzpafU2O4lkdYaSGUYLU4iHPZ2ULkUgUtvv0pq1B48A+XbyHMr124n4+5IoKXXEvFaMVFfMD9xqvcqsYuFsGAlV6+UDPfWnIRH/A0R4Ty4g+p2P3+ntzHR1xBa4vhEUrhJViF6VW2tQgCPuVm/sUsC6GYbcxJnOELjwXAa2xnEQxY6VSDJdS2DPrWch7iRkZ/e1uuFK3q7MbpHOw+Sd9bQX3KLIMBK43aMcMi6Cemcxu38rGFUKT7opM40fsBtYb2fGgRDFhp1Ic3LILWopyXGMadLLYUClldBjKIfb0LUGu1NW9ahLB4k3uYPBWvyra7vtzApwxjT4uhEA+eQ/mE+zjAeCWPUtHzDFaYujPRImg9JjKMe7xkqEC14RgG0d1CaL1HqckWwYCVRhswJ5HrVc67fMoeznucIG9wO3f7lKFK1oyBnMAe7tsTYyXPsAm9Enq9qDlf20UGrHT6lFaJWp/pjGIUzzIH2JLhbGYXJUgZz3E7D7HIUqgI9diTEzjIiz6J8jkH8RrQiO3Zkz3ZKlFB61OPAQas9HooEe8rL+ddnud5xvzkjFobHvVNiYmzmP9xN0/5kh1VWW325hgOor6lSJi3OPAnr35vzi70p39Czmg9zKF2kgErrX7GLbEuf/UzVmvTkDs4yG5KoLmMYDiP+Zyh1qkOe3EAB9PCUiTQ4xzNgkr+WzLOaP2M/9pNBqy0asYnMfyqrOyM1drU4CrOt6MSagEjeJAnWGIp9BP12Y/D2J9GliKhrmIw5ev9W3Ge0VrCZsy1o5Re11MR2aeMt7mGg2le4Doex5II19JPoZ8lDGcQjd2Y9G20GsgwFrplJPizjJML7NXmHMw1vE1ZhGt5vRuTZ7DSbVOm0iD0pazvUuD6bM+DbGpnJdoyRjGCkT+5o0N50pr9Gejzv4k3k0N5vch/G92lw6V0dXoYA1ba/Y7LQvrmcibwPM9V6VLg+mzEffS3s1JgEsMZwYtVuPigrKjOVgzkAPq4x06BcRzOFyV/S3N2YTf60zO0oHUxf7WzDFhpV4Pn2CWxweoHNfkH59hdKfEVzzGCR5hvKTKtPntwAAPZxFKkxI2czYoAvy+soDWG3XzNswErCzZkLF0C+aZvLgU+x1chremZDHUWnRRZzgs8xdO8Q4XFyNieuTd7sRe7uD2manv8RWjPjQd76fAD+vKlHWbAyob2PEXHov/1N2esnueFCGaG78to31uWOrN5nlE84R0VGbAx/diT/b0nMnVWsQsvh76U5vSjf4lntN5nL2bYYQas7GjBAwVfKIwyWP3gq4KfQlRSfHOG88lK595RctVnJ/ZkT++zSq2v2CjCpRUftMZwuC/lMmBlTQ0u4uIqzYoVT7D6zhLq2VmptoJXGM0YXvSlOynQkL7swq5s58XAlFsSwfPipQatJVzGld57ZcDKps24mEGVhqx4g9U3avqKlswo423GMZZnfJ1rIoPVDuxMX/oZrDKjFqtiW/b6g9YShnGZ07wYsLKtGYdwANuv9hroFYxnHC/EGqy+09SZfTMYtN7hBV7gZT6zGLHblB3oRz+2SNRLfxXM3jP+p3qb049+9KX3asH9M15hBA+7bzdg5ccGtKQe8DUfJ+iU7WbMtGsy63Pe4A3GMo6lFiNStdiCndmareluMTJrMz5NzLrUoA0bAEv5wjPYBiwlQzcmWYTMW8W0b4PWJCd4CFUr+rIzW7ONs6/nYu85xSLoBzUtgX6koSXIxXbfne6cAMxnAm/wBhOZwHILE9C5g650pwdbs32kz5XJvacMWHIXoYRoQl/6ArCS93iDN3iDt1hsYQpWi85szdZszVZVelZY2dPIEsiAJXcRWjMgfHdWCz5nIpOYyCTD1npDVXd60J0edHGCXn+eWgIZsOQuQuuyCZuwJwBlzGACk5nIZN5joaWhEZ3o9m2oam+okntPGbBU1cOH9IMadKQjB3/7v+Yy/UeffGhGh9U+7X00SO49ZcCSv8EUbNTYmq2//19f8wEfMJOZfMRMPmF2Rlq5Ea3ZjLa0pg2bsznN7Hi595QBS/4GU1Q2YAO2Xe1/L+VjPmEmH/EpXzCbL5jFkoS3oT4taEkLNmZT2tKazWjjq6Lk3lMGLPkbTMlRjy50+cmfLeILZjGbL/iS2cxjLvO+/UR583wDmn77aUZTNmJjWn77fxvYbXLvKQOW3EUofeOpIx3X+l9Wfhu3FjCfVcxnBYtZzIrV/tc3fvj/ypkPNPn+FTMNqbXa/9eUmjSmDvVpQG2aUJMmNKYZTWn6/d+T3HvKgCV3Ecq0WmzkNJzKFC8R6kd83ajcRUiSe08ZsBQqz2BJkntPGbDkbzBJMmDJgCV3EZLkz1MZsGTAkiS595QBS/4GkyQDlmLkW7X0YyudukOSirDKGde0Os9gaXX1jFeSVJSavmZJBixVxlPcklQsX70kA5YMWJIUMO9hlQFL7h4kyZ+oMmDJ3YMk+RNVBiy5e5Ak96AyYEnuHiSpeF4DkAFLlfAZGEkyYMmApYB5BkuS3IPKgCV/f0mSe1AZsOTvL0kyYMmAJXcPkiR/osqAJXcPkuRPVBmw5O5BkvyJKgOWDFiSJPegMmDJ31+SZMCSAUvuHiTJn6gyYMndgyT5E1UyYMndgyT5E1UGLBmwJMk9qJKvmiXQanF7lSNCkopUQU3KLYO+O6RKP/z6Ml5JUrGqeQ5LBiytPWBJktyLyoClQHmDpiS5F5UBS+4aJClBPIMlA5bcNUiSe1EZsBS+pJ7B+oCHWGD3SAJgEfcz2b2oDFjyt1cp3uJEunAYm3Mtq+wiKefKuZ2OHEkPDuQl96IyYMmAVYxxHEgfhlEGfMW5bMUTdpKUYyPpySC+BCoYzk7swggq3IvKgKWkS87J7XJGsAM7M/xHfzqBfenLC3aUlEMvszsH/OTS4FgG0ofbKXMvKgOWkiwZv71Wcjs9Gcgra/2vL7IrA3jbzpJyZCJHsiPPrfW/vc0gunAty9yLyoAlA1ZllnMjHRm0nhtYR7E1R/K+HSblwIecQW/uX+ff+YBzac+VLHYvKgOWkijek9sLuJb2nMHHVfi75dxPd87gMztNyrBPOY+u3FilS4BfMJh2XMLXOd6LyoClhIrvt9csLqEt5/J5Af9mJTfSicEsseOkDFrCYDoxlOUF/JuvGEJbzuOTHO5FZcBSgjWIZanvcwZtGMK8onbBV3KSHSdl0IlcydIi/t0ihtKRM2K6icCAJQOW1qJO5EsczzF05caCfqP+1Bt2nJRBb5bwb5dzI105hvE52IvKgKUUqBHp0sawP1txT8kPWH9UUjyTlETL+ajEbyjjHrZif8ZkeC8qA5ZSYl5kSxrHnvTjsUCmCCxjul0nZcz0QOa2quAx+rFzhNORzrXrZMDSmmZGsIxyRrAtO/NMgN85za6TMibIrXocA+nN7ZG8bGumXScDltY0IeTvX84NdGYgryd4VywpawEL4F0G0ZUbQr+hYKJdJwOW1jQ6xO9exLVszpl8EMJ3v2fXSQas9fqAM2nDJaHeDDHGrpMBS2v6MKRfX7P5A204l09DWu+pdp1kwKqSWQyhA39gdijfPtE7QmXA0tr9J/Bv/GZ25UtDvfXTS4RS1oT5s2kul9K6im+NKMwtdpx+UM0SaDXNmE7TwL5tMn/jTlZGsN7zaWznSZmxgCYRLKUWx/EbugX2ffPo4FOE+oFnsPTjX3ZXBvRNr3EYPbk1knjlOSwpW6LZoldyKz05jNcC+r4rjVcyYKly/y+AuY/HcSDb8RDlGdsdS4pGdPdVlvMQ27ELI0r+polcY8fJgKXKreAEFpWws3qY7dmZ4Zn8vSspGlE/GTyWgWzPwyX8KFzEMSyz42TA0rq8y9FFTci3ktvoyaG8moPdsaSs/WR6lUPpyW1F3dawiqN5126TAUvrM5JDCnyL/XJupzsnMTmmNXaiBsmAVbrJnERHrmVJgfu/oxlpp+mnfIpQa7c999K2Sn9zHtcxNKRZZaqqEQvsMikzmsS8RW/Eufyiik9Uf8RRvGKXyYClqmvGZZy+nnfDf8HV/DsR4eYzNrHLpEz4nFYJWIvGnMn5tFzn3ynjRi722UFJhevOLSylYq2f8ZxMncSs6fOVrKUfP37S9nk+MfuVOpzM+ErWcim30N2DhDyDpeI1Yj/6sx2t2QhYzidM5kVGJOyWzps41a6SMuFmTkvU+vTiAHaiG5tRB5jNTF7leR5joV2ldalpCbQeC7mXexO/lk7UIGVF0h5aedcnBFUMnyJUNhiwpKxw2hUZsCQDliS3ZmlN3oOlbKjNYi94SxlQRn1WWAaln2ewlA0r+MgiSBnwofFKBiwpSbysILklSwYsyd2yJLdkGbAkd8uS3JIlA5bcLUtyS5YMWFLxnDtHMmBJieE0DcrOj4VF1LMMUqotpSHllkHZOChJ2VDO+xZBSrn3jFcyYElJM9USSCnnBUIZsCR3zZL8mSQZsJR13uYuuRVLBiwpYMk9gzWac7ifxXaRYreMEfyaUW7FUth8ilDZsSGzE7hWq7iMP1MONGZ/DmZvmthVisE8nuJhRrIQqMY5/I3aidyK59hVMmBJSTOHDRK2RjM5hnE/+pMa7MgBDKS73aWITGcUI3jyJy9R3pZ76JCwNf2a5naXDFhS8rzEDolan0f4GV9X8t86sCcD2SuRZxGUDWW8zHCGM6mS/96EGzkyYVvwTnabJCXPbVQk5rOMc6vwA6YBA7mBhQlabz9Z+CzhPgbRtArbzCCWJGi9b3UnpuyoaQmUIcl5AulDjuHlKvy9xQxnOFcz2c5TgPowpYp/cxgTuIdObsFS0HyKUFmSlCeQHmSrKsWr70zhVTtPgXmlyvEK4E225k63YMmAJVUuCZMULuU0Dmdegf/qDjtPgSk0Li3keE5jqQFLCpI3uStLGrAw5jE9haN4p4h/14JPvWCvQKxiU2YV8e+6ch+9Yl3zCho5W5yywzNYypLFfBLr8m9nm6LiFcziabtPgXi6qHgFU9iOa2Nd85nGKxmwpKSK7xLDQo5nUAkHiDvtPAWi+MvNyzi3iMvbWdh6JQOW9P/bu//YrK46juOftlDoGG3AZZWKtWDZYMLsUIwZRlTmloFsUH+wkG3ROYckQk3UpOgfIBRN5A8ykkGmyRwY183YbcRUfgTNipNSIaIOcMgs/cHP8kMoLf35FP9YnHmeru3z3Hvuuefevl9N9scSbs/nee655/Te7z3H0Uv0Ud+Fwq+rg68PvnVol69/X6P71MAEC2CCBSQL5zXvX2m+79/cqdf5+uDba74fszVpgbbq1qjpvQATLMDJv4Hb9ZieNPIGFg8J4cZZ1KMKLRtyD4I49V4gQLxFiHiZYfkifViPqdHQsXJ0Rh/kK4QPFzRVCUPHKtZLmm+5977DV4j44A4W4uV0yoa2QbqlrfqMsemVlNArfIHw5WVj0yupRZ/TjzVgre29auILBBMswFX9Om3pN13WElUYns6x3Cj8+bXh3rReD+mCpbY3qp8vEEywAHfZeURYpzLVGj/qkYy2OAGSndIR48fcrzJLa7RRgQUmWMAon2AltEELdTaQY7/EFwjPdgZy1It6WBsMPnocenoIMMECRvEEq02LtC6w4WZnKK/HIw5uBTY9T2idHtC5gNt/kq8QTLCA0TvB+oPKtC/A4zernq8Qnhw0+MLFYG+oTL+P9J9GABMswNHLdL/W6kGdD7j9FLrDm6DXUbukJVobYCE6jwgRM6yDhfhp18QAjtqqFXrTQusn67xynf58O7ROCRXrw5qqj6hQOTE9jxK6oGadUatadUsble90a/tUpMsWfs88vazpARz3hgp4PI54GcNHgNj5pz5l/Ji79JSlla2vaq+WOPzpdmmR/pT0f/I0RUWa9N5/p+qTGhu5ydQpndF5/Ufn3vtvW9Ldmr9ovyY4nGC3lemVdFjz9IIeDaDXMr0CAMe9qFtGf7pVYfVe73LD7Tf506/yNBIsczjB+/8sTSPVl9TncIKvWTxDs1ShbsPtf5ELFwC4bqXRC3+TPm25/eN1zdFBfEDfTPt+SpSmV7vTTPWEBhxNcF15ls/SuTplNMEzXLgAwHXTDV72q0OpvPmlo8P4D9NOUKquyEyvenR32rl+5GiGF0I4S/NVbTDBdC5cAOC+Pxu55HepIqT2P+DkIL4towxVkZlgbcwo1xYnMywM6Ux9Uh1G2v8mFy0AiILHDVzyT2h2aO3PVqtzQ3h1hou65KkxEtOr5gxL17O0w7kMZ0N8k3O2ThhI8DgXLQCIghzfF/2dIb8xttmxIfyPGpdxhmiUui/NONdY7XEsw89CPVfz9KzP9p/kfXYAiIov+ChHvuHA39NlTg3gf1eBpxS1zk+v9nrKNVFHnErx8dDP16/4eDFjQA9ywQKA6HjO4+X+qO5yov1vOTN8v6NCjxlcL3XPpLw92R1625kUx504X+/SUY/tf46LFQBESa7qPF3sxzvS/rWODN8XNcNHCrdL3at8JJumc46kqHTkjB3v6Y+aOsf3LQAADFKQ4duE17XcodYXK+HE+kr3+Urhcql7s886uzm66sTaZCUOnbVLdSWj1h/WZC5UABA9t6sm7Uv9QU1zrPV1DjxC+6LvFO6Wui/1nW2BA49A33DsrJ2mg2m3vUa3c5ECgGjK0mq1p7EZznoH32N6JuShO6GvGsnhZqn7XiPZHlF/yDm+5dx5O0br09hIp12rrW5ABQAwbqq2D3PB71O1Sp1s9yTj+71l9rPGUA4XS929l7enWhlyDjcfsZWqepidG7u1XVO5MAFAHBRqjepSBvpeHVKlih1u9ashDt3rDOZwr9R9o8F060PMUePw2VusSh1Sb8ruCHVa4/mtVCBSuEWL0SRXd6tEecpXm87quLodb++X9duQfvPz+rbBo+XphFOl2K2apU6Dx3vW2N2+zM+QVx0/h8frY/qQ7lS7utSkk+rlMgQACH9CeCWU+yK7jG+9Uu7U/atlhtNl6zeh5LjqYX19AACgn4fyXloQa4HVxqy8PXUqvC+EJM/TQQAA8GKB9UH7H5oUSBJXSt3Nlbcny9dfrWf5LB0EAAAvstVsdchu1JTAslTFrrw92RTLi6o2K5sOAgCANz+1OGRfCujuzrvydDr06VWLz9Xbh/dRXbCY5Sd0DgAAvLrH2oDdrk8EnKU8duXtqe7VNWtZZtM5AADw7m9WhutePWQhS23syttTfd7S8rBH6RgAAPjxAytbBj9hJUuYpe49gT4A/b/lVrbp/j4dAwAAP4os7Hf3XWtpqmJY3p5qlYV9ItlqBgAAn/YHPFxvspglrFL3YMvbU20KOM1+OgUAAH49FehgvdPyllnlsSxvT5alXwSa5ht0CgAA/MrXzcCG6t9pjPU8tbEsb0+Wo5rA0nSpgE4BAIB/Qe11V2/1wdn/2C51t1XenixPBwLK8wodAgAAEx4NZKA+pskh5amKaXl7soKAlth4hA4BAIAJY3XJ+DDdquLQ8tgsdW8J5S7du4oCyHlFuXQIAADM2GZ8W5yZoeYpj2l5e6qZxqfG2+gMAACYMt/oIN2p+0NPZKfUfV/oOefphtFE99MZAAAwJUv/NrgtzsMOJJphYVOZbs1wIOlC9RhL1GR5UQ0AAGJuo7Ftcb7uSKKq2Ja3p1phbPucDXQEAABMmmloiP6eM4mCLnUPs7w91XcMZbqHjgAAgFkNBgbozU4lKo9xeXuqzQYSNdAJAAAwzf8mwjucq+CpjXF5e7Is7fCdaRWdAAAA0yb4fOW/VmOdyxTUqu7hrN4+vBy95nMFrIl0AgAAzKuM3LY4I6uKdXl76hS53kemSjoAAABByNVxj4Pzv3Sno5mCKHVvcXQyKX1AJzxmelvj6AAAAARjrm5GbFuckZXHvLw9WbFaPSS6qbmc/AAABCfzNZXaNMvxTLuNTq92O552ltoyTJTQCk58AACC9XRGU6yLEbj3YbLU3cXy9lRzdTGj6dXTnPQAAARvsa6lOTgfU2kkElXFvLx98JTyWJp5rmkxJzwAAHaUaO+IQ3OftigvInlMlbq7W94+OPEW9Y2YZ69KONkBALBpsQ4Ns6FztWZGKk157MvbB5upavUOmeUQ964AAAjHHG1SvXqSlqPco9UqimCW2tit3p6OIq3WHl1JqiKr1ybN4eQGoiyLjwCIgRwVa7Jy1anLOhfZFKV6S+N9/Pte3auTkU1fpDs0Qb26qhYlOKUBAIApVaOgvB0AAMCq29ToeXrVqNv4AAEAAAZb5HmCtYgPDwAA4P1t9zS92sYHBwAAMJRxOpDx9OoAGyEDAAAMp0ANGU2vGlTAhwYAADC8CapJe3pVE5m12wEAAEKVpZVqH3Fy1a6VrOYHAACQvkJtVeeQk6tObVUhHxIAAECmCrRKtepImlp1qFarqLsC4DJurgNwX7ZKVKICSdfVpCYN8JEAAAAAAAAAAAAAAAAAAAAAAAAAafkvUzAxpMdioTUAAAAldEVYdGRhdGU6Y3JlYXRlADIwMjQtMDctMDZUMTg6MTk6NTYrMDA6MDCYNeoSAAAAJXRFWHRkYXRlOm1vZGlmeQAyMDI0LTA3LTA2VDE4OjE5OjU2KzAwOjAw6WhSrgAAAABJRU5ErkJggg==;" vertex="1" parent="1">
          <mxGeometry x="90" y="585" width="180" height="180" as="geometry" />
        </mxCell>
        <mxCell id="bqYtcyJBVpRJzQG5NFwz-2" value="&lt;h1&gt;&lt;font face=&quot;Verdana&quot; style=&quot;font-size: 90px;&quot;&gt;umpy&lt;/font&gt;&lt;/h1&gt;" style="text;html=1;align=center;verticalAlign=middle;whiteSpace=wrap;rounded=0;" vertex="1" parent="1">
          <mxGeometry x="209" y="584" width="400" height="190" as="geometry" />
        </mxCell>
      </root>
    </mxGraphModel>
  </diagram>
</mxfile>
